<svg width="14" height="22" viewBox="0 0 14 22" fill="none" xmlns="http://www.w3.org/2000/svg">
<path d="M3.27448 18.5625V21.75H0.25V0.644531C0.25 0.456269 0.435216 0.25 0.734266 0.25H13.2657C13.5648 0.25 13.75 0.456269 13.75 0.644531V0.650504V0.656895V0.663702V0.670924V0.678558V0.686604V0.695059V0.703922V0.713191V0.722865V0.732942V0.743421V0.754299V0.765575V0.777248V0.789315V0.801776V0.814629V0.827871V0.841502V0.855519V0.869922V0.884707V0.899875V0.915423V0.931349V0.947652V0.964331V0.981383V0.998807V1.0166V1.03476V1.05329V1.07219V1.09145V1.11107V1.13105V1.15139V1.17209V1.19314V1.21455V1.23631V1.25842V1.28088V1.30369V1.32684V1.35034V1.37418V1.39836V1.42288V1.44774V1.47293V1.49846V1.52432V1.55052V1.57704V1.60389V1.63106V1.65856V1.68638V1.71453V1.74299V1.77178V1.80087V1.83029V1.86001V1.89005V1.9204V1.95105V1.98202V2.01328V2.04486V2.07673V2.1089V2.14137V2.17414V2.2072V2.24056V2.27421V2.30815V2.34237V2.37689V2.41169V2.44677V2.48213V2.51778V2.5537V2.58991V2.62638V2.66313V2.70016V2.73745V2.77501V2.81284V2.85094V2.8893V2.92792V2.96681V3.00595V3.04535V3.08501V3.12492V3.16508V3.20549V3.24616V3.28707V3.32822V3.36963V3.41127V3.45316V3.49528V3.53765V3.58025V3.62308V3.66615V3.70945V3.75297V3.79673V3.84071V3.88492V3.92935V3.97401V4.01888V4.06397V4.10928V4.1548V4.20054V4.24649V4.29264V4.33901V4.38558V4.43236V4.47935V4.52653V4.57392V4.6215V4.66928V4.71726V4.76543V4.81379V4.86234V4.91108V4.96001V5.00912V5.05842V5.1079V5.15757V5.20741V5.25742V5.30762V5.35799V5.40853V5.45924V5.51012V5.56117V5.61238V5.66376V5.7153V5.76701V5.81887V5.87089V5.92306V5.9754V6.02788V6.08051V6.1333V6.18623V6.23931V6.29254V6.3459V6.39941V6.45306V6.50685V6.56077V6.61483V6.66902V6.72334V6.7778V6.83238V6.88709V6.94192V6.99688V7.05196V7.10716V7.16248V7.21791V7.27346V7.32913V7.3849V7.44079V7.49679V7.55289V7.6091V7.66541V7.72182V7.77834V7.83495V7.89166V7.94847V8.00537V8.06237V8.11945V8.17662V8.23389V8.29123V8.34867V8.40618V8.46377V8.52145V8.5792V8.63703V8.69493V8.75291V8.81096V8.86907V8.92726V8.98551V9.04383V9.1022V9.16064V9.21914V9.2777V9.33632V9.39499V9.45371V9.51248V9.57131V9.63018V9.6891V9.74806V9.80707V9.86612V9.92521V9.98434V10.0435V10.1027V10.1619V10.2212V10.2805V10.3398V10.3992V10.4586V10.518V10.5774V10.6368V10.6963V10.7558V10.8153V10.8748V10.9343V10.9938V11.0534V11.1129V11.1725V11.232V11.2916V11.3512V11.4107V11.4703V11.5298V11.5894V11.6489V11.7085V11.768V11.8275V11.887V11.9465V12.006V12.0654V12.1248V12.1842V12.2436V12.303V12.3623V12.4216V12.4809V12.5401V12.5993V12.6585V12.7176V12.7767V12.8358V12.8948V12.9538V13.0127V13.0716V13.1304V13.1892V13.2479V13.3066V13.3652V13.4238V13.4823V13.5407V13.5991V13.6574V13.7157V13.7739V13.832V13.8901V13.9481V14.006V14.0638V14.1216V14.1793V14.2369V14.2944V14.3518V14.4092V14.4665V14.5237V14.5808V14.6378V14.6947V14.7515V14.8082V14.8649V14.9214V14.9778V15.0341V15.0904V15.1465V15.2025V15.2584V15.3142V15.3699V15.4254V15.4809V15.5362V15.5914V15.6465V15.7015V15.7564V15.8111V15.8657V15.9202V15.9745V16.0287V16.0828V16.1367V16.1906V16.2442V16.2978V16.3511V16.4044V16.4575V16.5104V16.5632V16.6159V16.6684V16.7208V16.773V16.825V16.8769V16.9286V16.9802V17.0316V17.0828V17.1339V17.1848V17.2355V17.2861V17.3365V17.3867V17.4368V17.4866V17.5363V17.5858V17.6351V17.6843V17.7332V17.782V17.8306V17.879V17.9272V17.9752V18.023V18.0706V18.118V18.1652V18.2122V18.2591V18.3057V18.3521V18.3982V18.4442V18.49V18.5355V18.5809V18.626V18.6709V18.7156V18.7601V18.8043V18.8483V18.8921V18.9357V18.979V19.0221V19.065V19.1076V19.15V19.1922V19.2341V19.2758V19.3172V19.3584V19.3993V19.44V19.4805V19.5207V19.5606V19.6003V19.6398V19.6789V19.7179V19.7565V19.7949V19.8331V19.8709V19.9085V19.9459V19.9829V20.0197V20.0562V20.0925V20.1284V20.1641V20.1995V20.2346V20.2695V20.304V20.3383V20.3723V20.406V20.4394V20.4725V20.5053V20.5378V20.57V20.6019V20.6336V20.6649V20.6959V20.7266V20.757V20.7871V20.8168V20.8463V20.8754V20.9043V20.9328V20.961V20.9888V21.0164V21.0436V21.0705V21.0971V21.1233V21.1492V21.1748V21.2V21.2249V21.2495V21.2737V21.2976V21.3212V21.3444V21.3672V21.3897V21.4119V21.4337V21.4552V21.4763V21.497V21.5174V21.5375V21.5571V21.5764V21.5954V21.614V21.6322V21.65V21.6675V21.6846V21.7014V21.7177V21.7337V21.7493V21.75H10.7255V18.5625C10.7255 18.0389 10.2532 17.668 9.74126 17.668H4.25874C3.74677 17.668 3.27448 18.0389 3.27448 18.5625ZM4.25874 15.332H5.04196C5.55393 15.332 6.02622 14.9611 6.02622 14.4375C6.02622 13.9139 5.55393 13.543 5.04196 13.543H4.25874C3.74677 13.543 3.27448 13.9139 3.27448 14.4375C3.27448 14.9611 3.74677 15.332 4.25874 15.332ZM4.25874 12.582H5.04196C5.55393 12.582 6.02622 12.2111 6.02622 11.6875C6.02622 11.1639 5.55393 10.793 5.04196 10.793H4.25874C3.74677 10.793 3.27448 11.1639 3.27448 11.6875C3.27448 12.2111 3.74677 12.582 4.25874 12.582ZM4.25874 9.83203H5.04196C5.55393 9.83203 6.02622 9.46114 6.02622 8.9375C6.02622 8.41386 5.55393 8.04297 5.04196 8.04297H4.25874C3.74677 8.04297 3.27448 8.41386 3.27448 8.9375C3.27448 9.46114 3.74677 9.83203 4.25874 9.83203ZM4.25874 7.08203H5.04196C5.55393 7.08203 6.02622 6.71114 6.02622 6.1875C6.02622 5.66386 5.55393 5.29297 5.04196 5.29297H4.25874C3.74677 5.29297 3.27448 5.66386 3.27448 6.1875C3.27448 6.71114 3.74677 7.08203 4.25874 7.08203ZM8.95804 15.332H9.74126C10.2532 15.332 10.7255 14.9611 10.7255 14.4375C10.7255 13.9139 10.2532 13.543 9.74126 13.543H8.95804C8.44607 13.543 7.97378 13.9139 7.97378 14.4375C7.97378 14.9611 8.44607 15.332 8.95804 15.332ZM8.95804 12.582H9.74126C10.2532 12.582 10.7255 12.2111 10.7255 11.6875C10.7255 11.1639 10.2532 10.793 9.74126 10.793H8.95804C8.44607 10.793 7.97378 11.1639 7.97378 11.6875C7.97378 12.2111 8.44607 12.582 8.95804 12.582ZM8.95804 9.83203H9.74126C10.2532 9.83203 10.7255 9.46114 10.7255 8.9375C10.7255 8.41386 10.2532 8.04297 9.74126 8.04297H8.95804C8.44607 8.04297 7.97378 8.41386 7.97378 8.9375C7.97378 9.46114 8.44607 9.83203 8.95804 9.83203ZM8.95804 7.08203H9.74126C10.2532 7.08203 10.7255 6.71114 10.7255 6.1875C10.7255 5.66386 10.2532 5.29297 9.74126 5.29297H8.95804C8.44607 5.29297 7.97378 5.66386 7.97378 6.1875C7.97378 6.71114 8.44607 7.08203 8.95804 7.08203ZM10.1329 2.54297H3.86713C3.35516 2.54297 2.88287 2.91386 2.88287 3.4375C2.88287 3.96114 3.35516 4.33203 3.86713 4.33203H10.1329C10.6448 4.33203 11.1171 3.96114 11.1171 3.4375C11.1171 2.91386 10.6448 2.54297 10.1329 2.54297Z" fill="#EA9BBC" stroke="black" stroke-width="0.5"/>
<path d="M8.75697 19.457V21.75H5.24298V19.457H8.75697Z" fill="#EA9BBC" stroke="black" stroke-width="0.5"/>
</svg>
