<svg width="14" height="18" viewBox="0 0 14 18" fill="none" xmlns="http://www.w3.org/2000/svg">
<path d="M12.232 1.05469V1.15469H12.332H13.5898C13.7392 1.15469 13.9 1.32118 13.9 1.58203V17.4727C13.9 17.7335 13.7392 17.9 13.5898 17.9H0.410156C0.260801 17.9 0.1 17.7335 0.1 17.4727V1.58203C0.1 1.32118 0.260801 1.15469 0.410156 1.15469H1.66797H1.76797V1.05469V0.527344C1.76797 0.266494 1.92877 0.1 2.07812 0.1C2.22748 0.1 2.38828 0.266494 2.38828 0.527344V1.05469V1.15469H2.48828H4.12891H4.22891V1.05469V0.527344C4.22891 0.266494 4.38971 0.1 4.53906 0.1C4.68842 0.1 4.84922 0.266494 4.84922 0.527344V1.05469V1.15469H4.94922H9.05078H9.15078V1.05469V0.527344C9.15078 0.266494 9.31158 0.1 9.46094 0.1C9.61029 0.1 9.77109 0.266494 9.77109 0.527344V1.05469V1.15469H9.87109H11.5117H11.6117V1.05469V0.527344C11.6117 0.266494 11.7725 0.1 11.9219 0.1C12.0712 0.1 12.232 0.266494 12.232 0.527344V1.05469ZM0.720312 16.9453V17.0453H0.820312H13.1797H13.2797V16.9453V5.34375V5.24375H13.1797H0.820312H0.720312V5.34375V16.9453ZM1.76797 2.10938V2.00938H1.66797H0.820312H0.720312V2.10938V4.28906V4.38906H0.820312H13.1797H13.2797V4.28906V2.10938V2.00938H13.1797H12.332H12.232V2.10938V2.67188C12.232 2.93273 12.0712 3.09922 11.9219 3.09922C11.7725 3.09922 11.6117 2.93273 11.6117 2.67188V2.10938V2.00938H11.5117H9.87109H9.77109V2.10938V2.67188C9.77109 2.93273 9.61029 3.09922 9.46094 3.09922C9.31158 3.09922 9.15078 2.93273 9.15078 2.67188V2.10938V2.00938H9.05078H4.94922H4.84922V2.10938V2.67188C4.84922 2.93273 4.68842 3.09922 4.53906 3.09922C4.38971 3.09922 4.22891 2.93273 4.22891 2.67188V2.10938V2.00938H4.12891H2.48828H2.38828V2.10938V2.67188C2.38828 2.93273 2.22748 3.09922 2.07812 3.09922C1.92877 3.09922 1.76797 2.93273 1.76797 2.67188V2.10938Z" fill="#EA9BBC" stroke="black" stroke-width="0.2"/>
<path d="M10.2812 7.55313H11.1016C11.2509 7.55313 11.4117 7.71962 11.4117 7.98047C11.4117 8.24132 11.2509 8.40781 11.1016 8.40781H10.2812C10.1319 8.40781 9.97109 8.24132 9.97109 7.98047C9.97109 7.71962 10.1319 7.55313 10.2812 7.55313Z" fill="#EA9BBC" stroke="black" stroke-width="0.2"/>
<path d="M8.64062 8.40781H7.82031C7.67096 8.40781 7.51016 8.24132 7.51016 7.98047C7.51016 7.71962 7.67096 7.55313 7.82031 7.55313H8.64062C8.78998 7.55313 8.95078 7.71962 8.95078 7.98047C8.95078 8.24132 8.78998 8.40781 8.64062 8.40781Z" fill="#EA9BBC" stroke="black" stroke-width="0.2"/>
<path d="M10.2812 10.7172H11.1016C11.2509 10.7172 11.4117 10.8837 11.4117 11.1445C11.4117 11.4054 11.2509 11.5719 11.1016 11.5719H10.2812C10.1319 11.5719 9.97109 11.4054 9.97109 11.1445C9.97109 10.8837 10.1319 10.7172 10.2812 10.7172Z" fill="#EA9BBC" stroke="black" stroke-width="0.2"/>
<path d="M8.64062 11.5719H7.82031C7.67096 11.5719 7.51016 11.4054 7.51016 11.1445C7.51016 10.8837 7.67096 10.7172 7.82031 10.7172H8.64062C8.78998 10.7172 8.95078 10.8837 8.95078 11.1445C8.95078 11.4054 8.78998 11.5719 8.64062 11.5719Z" fill="#EA9BBC" stroke="black" stroke-width="0.2"/>
<path d="M5.35938 10.7172H6.17969C6.32904 10.7172 6.48984 10.8837 6.48984 11.1445C6.48984 11.4054 6.32904 11.5719 6.17969 11.5719H5.35938C5.21002 11.5719 5.04922 11.4054 5.04922 11.1445C5.04922 10.8837 5.21002 10.7172 5.35938 10.7172Z" fill="#EA9BBC" stroke="black" stroke-width="0.2"/>
<path d="M2.89844 10.7172H3.71875C3.86811 10.7172 4.02891 10.8837 4.02891 11.1445C4.02891 11.4054 3.86811 11.5719 3.71875 11.5719H2.89844C2.74908 11.5719 2.58828 11.4054 2.58828 11.1445C2.58828 10.8837 2.74908 10.7172 2.89844 10.7172Z" fill="#EA9BBC" stroke="black" stroke-width="0.2"/>
<path d="M5.35938 13.8813H6.17969C6.32904 13.8813 6.48984 14.0477 6.48984 14.3086C6.48984 14.5694 6.32904 14.7359 6.17969 14.7359H5.35938C5.21002 14.7359 5.04922 14.5694 5.04922 14.3086C5.04922 14.0477 5.21002 13.8813 5.35938 13.8813Z" fill="#EA9BBC" stroke="black" stroke-width="0.2"/>
<path d="M2.89844 13.8813H3.71875C3.86811 13.8813 4.02891 14.0477 4.02891 14.3086C4.02891 14.5694 3.86811 14.7359 3.71875 14.7359H2.89844C2.74908 14.7359 2.58828 14.5694 2.58828 14.3086C2.58828 14.0477 2.74908 13.8813 2.89844 13.8813Z" fill="#EA9BBC" stroke="black" stroke-width="0.2"/>
<path d="M10.6914 14.9359H10.7914V14.8359V13.7812V13.6812H10.6914H8.23047H8.13047V13.7812V14.8359V14.9359H8.23047H10.6914ZM7.82031 12.8266H11.1016C11.2509 12.8266 11.4117 12.9931 11.4117 13.2539V15.3633C11.4117 15.6241 11.2509 15.7906 11.1016 15.7906H7.82031C7.67096 15.7906 7.51016 15.6241 7.51016 15.3633V13.2539C7.51016 12.9931 7.67096 12.8266 7.82031 12.8266Z" fill="#EA9BBC" stroke="black" stroke-width="0.2"/>
<path d="M5.76953 8.60781H5.86953V8.50781V7.45312V7.35312H5.76953H3.30859H3.20859V7.45312V8.50781V8.60781H3.30859H5.76953ZM2.89844 6.49844H6.17969C6.32904 6.49844 6.48984 6.66493 6.48984 6.92578V9.03516C6.48984 9.29601 6.32904 9.4625 6.17969 9.4625H2.89844C2.74908 9.4625 2.58828 9.29601 2.58828 9.03516V6.92578C2.58828 6.66493 2.74908 6.49844 2.89844 6.49844Z" fill="#EA9BBC" stroke="black" stroke-width="0.2"/>
</svg>
