<svg width="15" height="22" viewBox="0 0 15 22" fill="none" xmlns="http://www.w3.org/2000/svg">
<path d="M8.31488 10.6502V10.4378V5.03133V4.7625L8.583 4.78199C9.9616 4.88217 10.8479 5.16332 11.3781 5.71692C11.9113 6.27372 12.0298 7.04938 12.0304 7.97864L8.31488 10.6502ZM8.31488 10.6502L8.52457 10.6845C10.3954 10.9901 11.7757 11.476 12.6825 12.1208C13.5781 12.7577 14.0088 13.5453 14.0088 14.4906C14.0088 15.7137 13.5605 16.6426 12.6775 17.3063C11.7812 17.9802 10.4132 18.3981 8.54756 18.5276L8.31488 18.5437V18.777V21.7444C8.30474 21.7473 8.29121 21.7497 8.27443 21.7497H6.24279C6.22617 21.7497 6.21277 21.7474 6.20271 21.7445V18.796V18.5573L5.96434 18.5462C3.45135 18.4292 2.1442 17.9521 1.439 17.26C0.740789 16.5747 0.579469 15.6283 0.509196 14.3937C0.510888 14.3915 0.513815 14.3882 0.518673 14.3838C0.538112 14.3663 0.578932 14.3432 0.642498 14.3341L0.642754 14.3341L2.07582 14.1277L2.07702 14.1275C2.15453 14.1159 2.22971 14.132 2.277 14.1594L2.27742 14.1597C2.29894 14.1721 2.30887 14.1833 2.31246 14.1883V14.1911C2.31246 14.6435 2.31245 15.0659 2.36861 15.4367C2.42603 15.8157 2.54482 16.1631 2.79835 16.4554C3.29833 17.0318 4.24877 17.3102 5.93988 17.3972L6.20271 17.4107V17.1475V11.7096V11.4983L5.99438 11.4631C4.16198 11.1533 2.81099 10.6671 1.92372 10.0258C1.04741 9.39249 0.62564 8.61157 0.62564 7.67571C0.62564 6.45036 1.06569 5.52106 1.92949 4.85807C2.80611 4.18525 4.14413 3.76778 5.97037 3.63848L6.20271 3.62203V3.3891V0.25527C6.21278 0.252371 6.22618 0.25 6.24279 0.25H8.27443C8.2914 0.25 8.30505 0.252433 8.31525 0.255387V3.37817V3.61428L8.55097 3.62776C10.7102 3.75122 11.9786 4.19703 12.7295 4.87583C13.4709 5.54599 13.7531 6.48499 13.8337 7.72147C13.8322 7.72338 13.8299 7.72607 13.8262 7.72954C13.809 7.74589 13.7718 7.7687 13.7119 7.77956L12.2804 8.03756C12.2802 8.03759 12.2801 8.03761 12.2799 8.03764C12.1982 8.05194 12.12 8.03734 12.0693 8.00952L8.31488 10.6502ZM0.507683 14.3959C0.507406 14.3967 0.507175 14.3971 0.507129 14.3971L0.507683 14.3959ZM13.8359 7.71801C13.8359 7.71802 13.8358 7.71833 13.8354 7.71896L13.8359 7.71801ZM0.259402 14.4003L0.259167 14.4003L0.259402 14.4003ZM8.31488 17.1168V17.3921L8.58895 17.3656C9.74985 17.2533 10.6457 16.9788 11.2552 16.5018C11.8788 16.014 12.176 15.3355 12.176 14.4906C12.176 13.88 11.8248 13.3696 11.2226 12.9569C10.6243 12.5469 9.74986 12.2111 8.62327 11.9405L8.31488 11.8664V12.1836V17.1168ZM5.89248 10.197L6.20271 10.274V9.95438V5.05085V4.77432L5.92758 4.80212C4.80498 4.91553 3.93741 5.19111 3.34704 5.66946C2.74383 6.15822 2.45842 6.83523 2.45842 7.67571C2.45842 8.27537 2.79721 8.77885 3.3801 9.18762C3.9588 9.59346 4.80414 9.92686 5.89248 10.197Z" fill="#EA9BBC" stroke="black" stroke-width="0.5"/>
</svg>
