<svg width="54" height="56" viewBox="0 0 54 56" fill="none" xmlns="http://www.w3.org/2000/svg">
<path d="M53.2481 27.1988L53.2482 27.199C53.5838 27.6747 53.5839 28.3252 53.2481 28.8017C53.0172 29.129 50.0504 33.2803 45.3264 37.3453C40.5913 41.4198 34.1621 45.3461 26.9997 45.3461C19.8374 45.3461 13.408 41.4198 8.67291 37.3453C3.94833 33.2798 0.981459 29.1279 0.751568 28.8014C0.416215 28.3249 0.416144 27.6748 0.751357 27.1981C0.980766 26.8727 3.94779 22.7204 8.67291 18.6546C13.408 14.5801 19.8374 10.6538 26.9997 10.6538C34.1621 10.6538 40.5913 14.5801 45.3264 18.6546C50.0514 22.7206 53.0184 26.873 53.2481 27.1988ZM3.65618 27.688L3.40942 27.999L3.65651 28.3099C5.05574 30.0699 8.11914 33.6432 12.2038 36.7806C16.2809 39.9121 21.433 42.6538 26.9997 42.6538C32.5778 42.6538 37.7308 39.9137 41.8058 36.7829C45.8881 33.6464 48.9458 30.0736 50.3433 28.312L50.59 28.0009L50.343 27.6901C48.9432 25.9291 45.8796 22.3558 41.795 19.2186C37.718 16.0873 32.5661 13.3461 26.9997 13.3461C21.4216 13.3461 16.2686 16.0862 12.1937 19.217C8.11134 22.3535 5.05366 25.9263 3.65618 27.688Z" fill="#EA9BBC" stroke="black"/>
<path d="M16.8184 28.0001C16.8184 22.1512 21.4033 17.4231 26.9998 17.4231C32.5962 17.4231 37.1811 22.1512 37.1811 28.0001C37.1811 33.8489 32.5962 38.577 26.9998 38.577C21.4033 38.577 16.8184 33.8489 16.8184 28.0001ZM19.3789 28.0001C19.3789 32.3308 22.78 35.8846 26.9998 35.8846C31.2195 35.8846 34.6206 32.3308 34.6206 28.0001C34.6206 23.6693 31.2194 20.1155 26.9998 20.1155C22.7801 20.1155 19.3789 23.6693 19.3789 28.0001Z" fill="#EA9BBC" stroke="black"/>
</svg>
