<svg width="168" height="167" viewBox="0 0 168 167" fill="none" xmlns="http://www.w3.org/2000/svg">
<path d="M83.829 0C37.532 0 0 37.532 0 83.829C0 125.352 30.222 159.74 69.848 166.399V101.318H49.626V77.898H69.848V60.629C69.848 40.592 82.086 29.673 99.963 29.673C108.525 29.673 115.883 30.311 118.019 30.592V51.536L105.62 51.542C95.9 51.542 94.026 56.16 94.026 62.939V77.886H117.219L114.194 101.306H94.026V166.959C135.502 161.911 167.657 126.647 167.657 83.805C167.657 37.532 130.125 0 83.829 0Z" fill="url(#paint0_linear)"/>
<defs>
<linearGradient id="paint0_linear" x1="83.8285" y1="0" x2="200.475" y2="192.435" gradientUnits="userSpaceOnUse">
<stop stop-color="#6C63FF"/>
<stop offset="1" stop-color="#172499"/>
</linearGradient>
</defs>
</svg>
