<svg width="31" height="39" viewBox="0 0 31 39" fill="none" xmlns="http://www.w3.org/2000/svg">
<g filter="url(#filter0_d)">
<path d="M25.809 10.2847C26.253 10.7137 26.253 11.4277 25.809 11.8717C25.38 12.3007 24.666 12.3007 24.238 11.8717L16.191 3.8247V17.1017V30.3787C16.19 30.9977 14.571 30.3787 13.952 30.3787C13.952 30.9977 13.333 30.3787 13.952 30.3787L13.952 3.8247L5.92 11.8717C5.476 12.3007 4.761 12.3007 4.333 11.8717C3.889 11.4277 3.889 10.7127 4.333 10.2847L14.285 0.332697C14.714 -0.111303 15.428 -0.111303 15.856 0.332697L25.809 10.2847Z" fill="white" fill-opacity="0.7"/>
</g>
<defs>
<filter id="filter0_d" x="0" y="-0.000244141" width="30.142" height="38.6542" filterUnits="userSpaceOnUse" color-interpolation-filters="sRGB">
<feFlood flood-opacity="0" result="BackgroundImageFix"/>
<feColorMatrix in="SourceAlpha" type="matrix" values="0 0 0 0 0 0 0 0 0 0 0 0 0 0 0 0 0 0 127 0"/>
<feOffset dy="4"/>
<feGaussianBlur stdDeviation="2"/>
<feColorMatrix type="matrix" values="0 0 0 0 0 0 0 0 0 0 0 0 0 0 0 0 0 0 0.25 0"/>
<feBlend mode="normal" in2="BackgroundImageFix" result="effect1_dropShadow"/>
<feBlend mode="normal" in="SourceGraphic" in2="effect1_dropShadow" result="shape"/>
</filter>
</defs>
</svg>
