<svg width="50" height="50" viewBox="0 0 50 50" fill="none" xmlns="http://www.w3.org/2000/svg">
<g filter="url(#filter0_ddd)">
<path d="M25 42C13.402 42 4 32.598 4 21C4 9.40205 13.402 0 25 0C36.5925 0.0131264 45.9869 9.40747 46 21C46 32.598 36.5979 42 25 42ZM25 1.4C14.1752 1.4 5.4 10.1752 5.4 21C5.4 31.8248 14.1752 40.6 25 40.6C35.8196 40.5877 44.5877 31.8196 44.6 21C44.6 10.1752 35.8248 1.4 25 1.4Z" fill="white" fill-opacity="0.7"/>
<path d="M36.3848 27.0746L25 15.6898L13.6152 27.0746C13.3439 27.3366 12.9138 27.3366 12.6426 27.0746C12.3645 26.8061 12.3568 26.3629 12.6254 26.0848L24.5051 14.2051C24.6363 14.0739 24.8143 14 25 14C25.1856 14 25.3636 14.0739 25.4949 14.2051L37.3746 26.0848C37.3804 26.0904 37.3861 26.0962 37.3917 26.102C37.6602 26.3801 37.6526 26.8232 37.3746 27.0918C37.0965 27.3604 36.6534 27.3527 36.3848 27.0746Z" fill="white" fill-opacity="0.7"/>
</g>
<defs>
<filter id="filter0_ddd" x="0" y="0" width="50" height="50" filterUnits="userSpaceOnUse" color-interpolation-filters="sRGB">
<feFlood flood-opacity="0" result="BackgroundImageFix"/>
<feColorMatrix in="SourceAlpha" type="matrix" values="0 0 0 0 0 0 0 0 0 0 0 0 0 0 0 0 0 0 127 0"/>
<feOffset dy="4"/>
<feGaussianBlur stdDeviation="2"/>
<feColorMatrix type="matrix" values="0 0 0 0 0 0 0 0 0 0 0 0 0 0 0 0 0 0 0.4 0"/>
<feBlend mode="normal" in2="BackgroundImageFix" result="effect1_dropShadow"/>
<feColorMatrix in="SourceAlpha" type="matrix" values="0 0 0 0 0 0 0 0 0 0 0 0 0 0 0 0 0 0 127 0"/>
<feOffset dy="4"/>
<feGaussianBlur stdDeviation="2"/>
<feColorMatrix type="matrix" values="0 0 0 0 0 0 0 0 0 0 0 0 0 0 0 0 0 0 0.4 0"/>
<feBlend mode="normal" in2="effect1_dropShadow" result="effect2_dropShadow"/>
<feColorMatrix in="SourceAlpha" type="matrix" values="0 0 0 0 0 0 0 0 0 0 0 0 0 0 0 0 0 0 127 0"/>
<feOffset dy="4"/>
<feGaussianBlur stdDeviation="2"/>
<feColorMatrix type="matrix" values="0 0 0 0 0 0 0 0 0 0 0 0 0 0 0 0 0 0 0.4 0"/>
<feBlend mode="normal" in2="effect2_dropShadow" result="effect3_dropShadow"/>
<feBlend mode="normal" in="SourceGraphic" in2="effect3_dropShadow" result="shape"/>
</filter>
</defs>
</svg>
