<svg width="50" height="50" viewBox="0 0 50 50" fill="none" xmlns="http://www.w3.org/2000/svg">
<g filter="url(#filter0_ddd)">
<path d="M25 0C13.402 0 4 9.40205 4 21C4 32.5979 13.402 42 25 42C36.5925 41.9869 45.9869 32.5925 46 21C46 9.40205 36.5979 0 25 0ZM25 40.6C14.1752 40.6 5.4 31.8248 5.4 21C5.4 10.1752 14.1752 1.4 25 1.4C35.8196 1.41234 44.5877 10.1804 44.6 21C44.6 31.8248 35.8248 40.6 25 40.6Z" fill="white" fill-opacity="0.7"/>
<path d="M36.3848 14.9254L25 26.3102L13.6152 14.9254C13.3439 14.6634 12.9138 14.6634 12.6426 14.9254C12.3645 15.1939 12.3568 15.6371 12.6254 15.9152L24.5051 27.7949C24.6363 27.9261 24.8143 28 25 28C25.1856 28 25.3636 27.9261 25.4949 27.7949L37.3746 15.9152C37.3804 15.9096 37.3861 15.9038 37.3917 15.898C37.6602 15.6199 37.6526 15.1768 37.3746 14.9082C37.0965 14.6396 36.6534 14.6473 36.3848 14.9254Z" fill="white" fill-opacity="0.7"/>
</g>
<defs>
<filter id="filter0_ddd" x="0" y="0" width="50" height="50" filterUnits="userSpaceOnUse" color-interpolation-filters="sRGB">
<feFlood flood-opacity="0" result="BackgroundImageFix"/>
<feColorMatrix in="SourceAlpha" type="matrix" values="0 0 0 0 0 0 0 0 0 0 0 0 0 0 0 0 0 0 127 0"/>
<feOffset dy="4"/>
<feGaussianBlur stdDeviation="2"/>
<feColorMatrix type="matrix" values="0 0 0 0 0 0 0 0 0 0 0 0 0 0 0 0 0 0 0.4 0"/>
<feBlend mode="normal" in2="BackgroundImageFix" result="effect1_dropShadow"/>
<feColorMatrix in="SourceAlpha" type="matrix" values="0 0 0 0 0 0 0 0 0 0 0 0 0 0 0 0 0 0 127 0"/>
<feOffset dy="4"/>
<feGaussianBlur stdDeviation="2"/>
<feColorMatrix type="matrix" values="0 0 0 0 0 0 0 0 0 0 0 0 0 0 0 0 0 0 0.4 0"/>
<feBlend mode="normal" in2="effect1_dropShadow" result="effect2_dropShadow"/>
<feColorMatrix in="SourceAlpha" type="matrix" values="0 0 0 0 0 0 0 0 0 0 0 0 0 0 0 0 0 0 127 0"/>
<feOffset dy="4"/>
<feGaussianBlur stdDeviation="2"/>
<feColorMatrix type="matrix" values="0 0 0 0 0 0 0 0 0 0 0 0 0 0 0 0 0 0 0.4 0"/>
<feBlend mode="normal" in2="effect2_dropShadow" result="effect3_dropShadow"/>
<feBlend mode="normal" in="SourceGraphic" in2="effect3_dropShadow" result="shape"/>
</filter>
</defs>
</svg>
