<svg width="199" height="231" viewBox="0 0 199 231" fill="none" xmlns="http://www.w3.org/2000/svg">
<g clip-path="url(#clip0)">
<path d="M189.966 58.8911H188.765C188.409 58.8911 188.121 59.2392 188.121 59.6687V82.9103C188.121 83.3398 188.409 83.688 188.765 83.688H189.966C190.322 83.688 190.61 83.3398 190.61 82.9103V59.6687C190.61 59.2392 190.322 58.8911 189.966 58.8911Z" fill="#3A3768"/>
<path d="M106.186 39.4631H106.077C105.722 39.4631 105.434 39.8113 105.434 40.2408V46.8492C105.434 47.2787 105.722 47.6269 106.077 47.6269H106.186C106.541 47.6269 106.829 47.2787 106.829 46.8492V40.2408C106.829 39.8113 106.541 39.4631 106.186 39.4631Z" fill="#3A3768"/>
<path d="M106.313 54.412H106.026C105.671 54.412 105.383 54.7602 105.383 55.1897V67.8428C105.383 68.2723 105.671 68.6205 106.026 68.6205H106.313C106.668 68.6205 106.956 68.2723 106.956 67.8428V55.1897C106.956 54.7602 106.668 54.412 106.313 54.412Z" fill="#3A3768"/>
<path d="M106.262 73.5919H106.051C105.696 73.5919 105.408 73.94 105.408 74.3695V87.1449C105.408 87.5744 105.696 87.9226 106.051 87.9226H106.262C106.617 87.9226 106.905 87.5744 106.905 87.1449V74.3695C106.905 73.94 106.617 73.5919 106.262 73.5919Z" fill="#3A3768"/>
<path d="M178.514 12.4861H117.175C111.128 12.4861 106.225 18.4141 106.225 25.7267V203.811C106.225 211.124 111.128 217.052 117.175 217.052H178.514C184.562 217.052 189.464 211.124 189.464 203.811V25.7267C189.464 18.4141 184.562 12.4861 178.514 12.4861Z" fill="#3F3D56"/>
<path d="M150.352 18.5952H140.903C140.302 18.5952 139.816 19.1836 139.816 19.9094V20.1336C139.816 20.8594 140.302 21.4478 140.903 21.4478H150.352C150.953 21.4478 151.439 20.8594 151.439 20.1336V19.9094C151.439 19.1836 150.953 18.5952 150.352 18.5952Z" fill="#E6E8EC"/>
<path d="M154.534 21.6415C155.274 21.6415 155.874 20.9163 155.874 20.0217C155.874 19.1271 155.274 18.4019 154.534 18.4019C153.794 18.4019 153.195 19.1271 153.195 20.0217C153.195 20.9163 153.794 21.6415 154.534 21.6415Z" fill="#E6E8EC"/>
<path d="M177.703 17.8141H168.182V19.203C168.182 20.9485 167.609 22.6224 166.588 23.8567C165.568 25.0909 164.183 25.7843 162.74 25.7843H132.36C130.916 25.7843 129.532 25.0909 128.511 23.8567C127.491 22.6224 126.917 20.9485 126.917 19.203V17.8141H117.976C117.108 17.8141 116.248 18.0209 115.446 18.4227C114.644 18.8244 113.916 19.4133 113.302 20.1557C112.688 20.898 112.202 21.7793 111.87 22.7492C111.538 23.719 111.367 24.7584 111.368 25.8081V203.73C111.367 204.779 111.538 205.819 111.87 206.789C112.202 207.759 112.688 208.64 113.302 209.382C113.916 210.125 114.644 210.713 115.446 211.115C116.248 211.517 117.108 211.724 117.976 211.724H177.703C179.456 211.724 181.137 210.882 182.377 209.382C183.617 207.883 184.313 205.85 184.313 203.73V25.8081C184.313 23.6879 183.617 21.6546 182.377 20.1555C181.137 18.6563 179.456 17.8141 177.703 17.8141V17.8141Z" fill="#6C63FF"/>
<path opacity="0.1" d="M156.27 49.739H114.426V57.8892H156.27V49.739Z" fill="black" stroke="#6C63FF" stroke-miterlimit="10"/>
<path opacity="0.1" d="M124.536 105.432C129.499 105.432 133.522 100.567 133.522 94.5652C133.522 88.5636 129.499 83.6983 124.536 83.6983C119.573 83.6983 115.549 88.5636 115.549 94.5652C115.549 100.567 119.573 105.432 124.536 105.432Z" fill="black" stroke="#6C63FF" stroke-miterlimit="10"/>
<path d="M122.008 92.5273V96.6024H124.255L127.063 100.151V88.9752L124.255 92.5273H122.008Z" fill="white"/>
<path opacity="0.1" d="M148.406 105.432C153.369 105.432 157.393 100.567 157.393 94.5652C157.393 88.5636 153.369 83.6983 148.406 83.6983C143.443 83.6983 139.42 88.5636 139.42 94.5652C139.42 100.567 143.443 105.432 148.406 105.432Z" fill="black" stroke="#6C63FF" stroke-miterlimit="10"/>
<path d="M148.406 99.1021C148.194 99.1007 147.986 99.1757 147.809 99.3174C147.632 99.4591 147.493 99.6612 147.411 99.8982C147.329 100.135 147.307 100.396 147.348 100.648C147.389 100.9 147.49 101.132 147.64 101.314C147.79 101.496 147.981 101.62 148.189 101.671C148.398 101.722 148.614 101.696 148.81 101.598C149.006 101.5 149.174 101.334 149.292 101.121C149.41 100.907 149.473 100.656 149.473 100.399C149.473 100.056 149.361 99.7275 149.161 99.4844C148.961 99.2413 148.69 99.1039 148.406 99.1021V99.1021ZM145.261 87.4338C145.049 87.4317 144.84 87.5061 144.663 87.6474C144.485 87.7887 144.346 87.9906 144.264 88.2275C144.181 88.4643 144.159 88.7255 144.199 88.9778C144.24 89.2301 144.341 89.4622 144.491 89.6446C144.641 89.8271 144.832 89.9516 145.04 90.0025C145.249 90.0534 145.465 90.0283 145.661 89.9304C145.858 89.8326 146.026 89.6663 146.144 89.4527C146.262 89.2392 146.325 88.988 146.325 88.731C146.325 88.3887 146.214 88.0603 146.014 87.8173C145.815 87.5743 145.544 87.4364 145.261 87.4338V87.4338ZM145.261 91.3255C145.048 91.3234 144.84 91.3979 144.662 91.5393C144.485 91.6808 144.346 91.8829 144.264 92.12C144.181 92.357 144.159 92.6183 144.2 92.8707C144.24 93.1231 144.342 93.3552 144.492 93.5375C144.642 93.7198 144.833 93.8441 145.042 93.8946C145.25 93.9451 145.467 93.9196 145.663 93.8212C145.86 93.7228 146.027 93.556 146.145 93.342C146.263 93.128 146.326 92.8764 146.325 92.6193C146.325 92.2773 146.213 91.9493 146.014 91.7068C145.815 91.4644 145.544 91.3273 145.261 91.3255V91.3255ZM145.261 95.2138C145.049 95.2117 144.84 95.2861 144.663 95.4274C144.485 95.5687 144.346 95.7706 144.264 96.0075C144.181 96.2443 144.159 96.5055 144.199 96.7578C144.24 97.0101 144.341 97.2422 144.491 97.4246C144.641 97.6071 144.832 97.7316 145.04 97.7825C145.249 97.8334 145.465 97.8083 145.661 97.7104C145.858 97.6126 146.026 97.4463 146.144 97.2328C146.262 97.0192 146.325 96.768 146.325 96.511C146.325 96.1687 146.214 95.8403 146.014 95.5973C145.815 95.3543 145.544 95.2165 145.261 95.2138V95.2138ZM151.552 90.0282C151.764 90.0296 151.972 89.9546 152.149 89.8129C152.326 89.6712 152.465 89.4691 152.547 89.2321C152.629 88.9952 152.651 88.7342 152.61 88.4821C152.569 88.23 152.468 87.9982 152.318 87.8161C152.168 87.634 151.977 87.5098 151.769 87.4592C151.56 87.4086 151.344 87.4339 151.148 87.5319C150.952 87.6298 150.784 87.7961 150.666 88.0096C150.548 88.2231 150.484 88.4741 150.484 88.731C150.484 88.9009 150.511 89.0692 150.565 89.2264C150.618 89.3835 150.697 89.5264 150.796 89.6469C150.895 89.7673 151.013 89.863 151.142 89.9284C151.272 89.9939 151.411 90.0278 151.552 90.0282V90.0282ZM148.406 95.2138C148.194 95.2124 147.986 95.2874 147.809 95.4291C147.632 95.5708 147.493 95.7729 147.411 96.0098C147.329 96.2468 147.307 96.5078 147.348 96.7599C147.389 97.012 147.49 97.2438 147.64 97.4259C147.79 97.608 147.981 97.7322 148.189 97.7828C148.398 97.8334 148.614 97.8081 148.81 97.7101C149.006 97.6121 149.174 97.4459 149.292 97.2324C149.41 97.0189 149.473 96.7679 149.473 96.511C149.473 96.1681 149.361 95.8392 149.161 95.5961C148.961 95.353 148.69 95.2156 148.406 95.2138V95.2138ZM151.552 95.2138C151.339 95.2124 151.131 95.2874 150.954 95.4291C150.777 95.5708 150.639 95.7729 150.557 96.0098C150.474 96.2468 150.452 96.5078 150.493 96.7599C150.534 97.012 150.636 97.2438 150.785 97.4259C150.935 97.608 151.126 97.7322 151.335 97.7828C151.543 97.8334 151.759 97.8081 151.955 97.7101C152.152 97.6121 152.319 97.4459 152.438 97.2324C152.556 97.0189 152.619 96.7679 152.619 96.511C152.619 96.1681 152.507 95.8392 152.307 95.5961C152.107 95.353 151.835 95.2156 151.552 95.2138V95.2138ZM151.552 91.3255C151.339 91.3241 151.131 91.3991 150.954 91.541C150.777 91.6829 150.638 91.8852 150.556 92.1223C150.474 92.3594 150.452 92.6207 150.493 92.8728C150.534 93.125 150.636 93.3568 150.786 93.5388C150.937 93.7207 151.128 93.8447 151.336 93.8949C151.545 93.9451 151.761 93.9193 151.957 93.8208C152.153 93.7223 152.321 93.5555 152.439 93.3416C152.557 93.1277 152.619 92.8763 152.619 92.6193C152.619 92.2767 152.506 91.9482 152.306 91.7056C152.106 91.4631 151.835 91.3264 151.552 91.3255V91.3255ZM148.406 91.3255C148.194 91.3241 147.986 91.3991 147.809 91.541C147.631 91.6829 147.493 91.8852 147.411 92.1223C147.329 92.3594 147.307 92.6207 147.348 92.8728C147.389 93.125 147.491 93.3568 147.641 93.5388C147.791 93.7207 147.983 93.8447 148.191 93.8949C148.4 93.9451 148.616 93.9193 148.812 93.8208C149.008 93.7223 149.176 93.5555 149.294 93.3416C149.411 93.1277 149.474 92.8763 149.473 92.6193C149.473 92.2767 149.361 91.9482 149.161 91.7056C148.961 91.4631 148.69 91.3264 148.406 91.3255V91.3255ZM148.406 87.4338C148.194 87.4324 147.986 87.5073 147.809 87.6491C147.632 87.7908 147.493 87.9929 147.411 88.2298C147.329 88.4668 147.307 88.7278 147.348 88.9799C147.389 89.232 147.49 89.4637 147.64 89.6458C147.79 89.828 147.981 89.9522 148.189 90.0028C148.398 90.0534 148.614 90.0281 148.81 89.9301C149.006 89.8321 149.174 89.6659 149.292 89.4524C149.41 89.2389 149.473 88.9878 149.473 88.731C149.473 88.3881 149.361 88.0592 149.161 87.8161C148.961 87.573 148.69 87.4356 148.406 87.4338V87.4338Z" fill="white"/>
<g opacity="0.4">
<path opacity="0.1" d="M124.536 138.033C129.499 138.033 133.522 133.167 133.522 127.166C133.522 121.164 129.499 116.299 124.536 116.299C119.573 116.299 115.549 121.164 115.549 127.166C115.549 133.167 119.573 138.033 124.536 138.033Z" fill="black" stroke="#6C63FF" stroke-miterlimit="10"/>
<path opacity="0.4" d="M128.748 127.845H125.097V132.26H123.974V127.845H120.323V126.487H123.974V122.072H125.097V126.487H128.748V127.845Z" fill="white"/>
</g>
<path opacity="0.1" d="M172.277 105.432C177.24 105.432 181.264 100.567 181.264 94.5652C181.264 88.5636 177.24 83.6983 172.277 83.6983C167.314 83.6983 163.29 88.5636 163.29 94.5652C163.29 100.567 167.314 105.432 172.277 105.432Z" fill="black" stroke="#6C63FF" stroke-miterlimit="10"/>
<path d="M172.277 87.9396C171.604 87.9503 170.94 88.121 170.322 88.4422C169.704 88.7633 169.144 89.2286 168.674 89.8113C168.205 90.3941 167.835 91.083 167.586 91.8386C167.337 92.5942 167.213 93.4018 167.222 94.2153V99.0952C167.219 99.3663 167.26 99.6355 167.343 99.8874C167.426 100.139 167.55 100.369 167.706 100.563C167.863 100.757 168.049 100.913 168.255 101.02C168.461 101.127 168.683 101.184 168.907 101.187H170.592V95.5804H168.345V94.2221C168.345 92.9612 168.76 91.7519 169.497 90.8603C170.234 89.9687 171.234 89.4678 172.277 89.4678C173.32 89.4678 174.32 89.9687 175.057 90.8603C175.794 91.7519 176.209 92.9612 176.209 94.2221V95.5804H173.962V101.184H175.647C175.871 101.181 176.093 101.124 176.299 101.017C176.505 100.91 176.692 100.755 176.849 100.561C177.005 100.366 177.128 100.137 177.211 99.8846C177.294 99.6325 177.335 99.3631 177.332 99.0918V94.2153C177.341 93.4018 177.217 92.5942 176.968 91.8386C176.719 91.083 176.349 90.3941 175.879 89.8113C175.41 89.2286 174.85 88.7633 174.232 88.4422C173.614 88.121 172.95 87.9503 172.277 87.9396Z" fill="white"/>
<g opacity="0.4">
<path opacity="0.1" d="M148.406 138.033C153.369 138.033 157.393 133.167 157.393 127.166C157.393 121.164 153.369 116.299 148.406 116.299C143.443 116.299 139.42 121.164 139.42 127.166C139.42 133.167 143.443 138.033 148.406 138.033Z" fill="black" stroke="#6C63FF" stroke-miterlimit="10"/>
<path opacity="0.4" d="M151.776 126.001V123.284C151.775 123.181 151.757 123.08 151.724 122.985C151.69 122.89 151.641 122.805 151.58 122.733C151.519 122.661 151.447 122.604 151.368 122.566C151.289 122.528 151.204 122.509 151.119 122.51H143.16C142.989 122.508 142.824 122.589 142.701 122.734C142.578 122.879 142.508 123.077 142.506 123.284V131.03C142.509 131.238 142.579 131.435 142.702 131.58C142.824 131.725 142.989 131.806 143.16 131.805H151.116C151.288 131.806 151.454 131.726 151.577 131.581C151.7 131.436 151.771 131.238 151.774 131.03V128.314L154.301 131.411V122.904L151.776 126.001Z" fill="white"/>
</g>
<path opacity="0.1" d="M172.277 138.033C177.24 138.033 181.264 133.167 181.264 127.166C181.264 121.164 177.24 116.299 172.277 116.299C167.314 116.299 163.29 121.164 163.29 127.166C163.29 133.167 167.314 138.033 172.277 138.033Z" fill="black" stroke="#6C63FF" stroke-miterlimit="10"/>
<path d="M171.833 129.964C171.35 130.296 170.804 130.47 170.248 130.47C169.692 130.47 169.146 130.296 168.663 129.964C167.421 130.423 166.66 131.941 166.38 133.275H174.116C173.836 131.941 173.077 130.423 171.833 129.964ZM170.249 122.833C169.698 122.832 169.158 123.029 168.699 123.4C168.24 123.77 167.882 124.297 167.671 124.913C167.459 125.529 167.404 126.207 167.511 126.862C167.619 127.516 167.885 128.118 168.275 128.589C168.665 129.061 169.162 129.382 169.703 129.512C170.244 129.642 170.805 129.575 171.315 129.32C171.825 129.064 172.26 128.631 172.566 128.076C172.873 127.521 173.036 126.869 173.035 126.202C173.035 125.308 172.742 124.451 172.219 123.819C171.697 123.188 170.988 122.833 170.249 122.833V122.833ZM170.249 128.769C169.83 128.759 169.422 128.602 169.076 128.316C168.73 128.03 168.46 127.628 168.3 127.159H172.195C172.036 127.628 171.767 128.031 171.422 128.317C171.076 128.604 170.668 128.762 170.249 128.772V128.769Z" fill="white"/>
<path d="M174.029 131.238H178.174C178.045 130.533 177.767 129.88 177.367 129.345C176.966 128.809 176.458 128.408 175.891 128.181C175.407 128.513 174.861 128.687 174.305 128.687C173.931 128.691 173.561 128.615 173.209 128.463C173.014 128.879 172.765 129.254 172.474 129.577C173.116 129.933 173.657 130.511 174.029 131.238V131.238ZM173.608 125.38H176.253C176.093 125.847 175.823 126.248 175.477 126.532C175.131 126.817 174.723 126.974 174.305 126.982C174.077 126.98 173.851 126.932 173.636 126.84C173.602 127.112 173.544 127.38 173.465 127.638C173.848 127.786 174.254 127.832 174.654 127.772C175.053 127.713 175.438 127.549 175.78 127.293C176.123 127.036 176.415 126.694 176.637 126.288C176.86 125.882 177.007 125.422 177.068 124.941C177.13 124.46 177.105 123.968 176.994 123.5C176.884 123.031 176.691 122.598 176.428 122.228C176.166 121.859 175.84 121.563 175.474 121.36C175.108 121.157 174.71 121.052 174.307 121.053C173.839 121.054 173.378 121.197 172.967 121.47C172.556 121.743 172.209 122.137 171.957 122.615C172.378 122.909 172.743 123.307 173.027 123.783C173.312 124.26 173.51 124.804 173.608 125.38V125.38Z" fill="white"/>
<path d="M148.406 181.5C153.369 181.5 157.393 176.635 157.393 170.633C157.393 164.632 153.369 159.766 148.406 159.766C143.443 159.766 139.42 164.632 139.42 170.633C139.42 176.635 143.443 181.5 148.406 181.5Z" fill="#FF6F61"/>
<path d="M143.792 173.316C144.284 172.755 144.844 172.287 145.452 171.931C145.546 171.88 145.626 171.797 145.681 171.692C145.737 171.587 145.765 171.464 145.764 171.34L145.811 169.227C147.529 168.61 149.364 168.67 151.052 169.397L151.004 171.509C151.003 171.632 151.028 171.753 151.077 171.86C151.126 171.968 151.198 172.057 151.285 172.121C151.895 172.505 152.447 173.01 152.919 173.615C152.97 173.68 153.031 173.732 153.098 173.769C153.166 173.805 153.238 173.825 153.312 173.828C153.386 173.83 153.459 173.815 153.528 173.783C153.597 173.752 153.66 173.704 153.714 173.642L155.141 172.005C155.248 171.882 155.311 171.712 155.315 171.532C155.32 171.353 155.265 171.178 155.163 171.048C154.301 169.947 153.267 169.062 152.122 168.444C150.977 167.826 149.743 167.487 148.489 167.446C147.235 167.405 145.987 167.663 144.816 168.205C143.645 168.747 142.574 169.563 141.664 170.606C141.61 170.668 141.567 170.741 141.537 170.823C141.507 170.905 141.491 170.993 141.489 171.082C141.487 171.171 141.5 171.26 141.526 171.343C141.553 171.426 141.593 171.503 141.644 171.567L142.995 173.292C143.046 173.357 143.107 173.409 143.174 173.445C143.241 173.482 143.314 173.501 143.388 173.504C143.462 173.506 143.535 173.49 143.604 173.458C143.673 173.426 143.736 173.378 143.789 173.316H143.792Z" fill="white"/>
<path opacity="0.1" d="M173.4 65.0209C177.278 65.0209 180.421 61.2199 180.421 56.5312C180.421 51.8424 177.278 48.0414 173.4 48.0414C169.523 48.0414 166.38 51.8424 166.38 56.5312C166.38 61.2199 169.523 65.0209 173.4 65.0209Z" fill="black" stroke="#6C63FF" stroke-miterlimit="10"/>
<path d="M174.987 58.4361C174.503 58.7677 173.956 58.9419 173.4 58.9419C172.844 58.9419 172.297 58.7677 171.814 58.4361C170.572 58.8945 169.811 60.4125 169.53 61.7505H177.27C176.989 60.4125 176.228 58.8945 174.987 58.4361ZM173.4 51.3047C172.849 51.304 172.309 51.5012 171.85 51.8713C171.391 52.2415 171.033 52.7679 170.822 53.384C170.61 54.0001 170.555 54.6783 170.662 55.3326C170.769 55.987 171.035 56.5881 171.425 57.0601C171.815 57.532 172.311 57.8535 172.852 57.9839C173.393 58.1143 173.954 58.0477 174.464 57.7926C174.974 57.5375 175.409 57.1053 175.716 56.5506C176.023 55.996 176.186 55.3439 176.186 54.6768C176.185 53.7833 175.892 52.9267 175.37 52.2946C174.847 51.6625 174.139 51.3065 173.4 51.3047ZM173.4 57.2441C172.981 57.2339 172.574 57.0761 172.228 56.7903C171.881 56.5044 171.612 56.1028 171.451 55.6345H175.349C175.189 56.1029 174.919 56.5048 174.573 56.7912C174.227 57.0776 173.82 57.2361 173.4 57.2475V57.2441Z" fill="white"/>
<path opacity="0.1" d="M103.207 -3.60374C102.552 -4.06219 101.668 -3.62412 101.218 -2.88721C100.769 -2.1503 100.657 -1.18926 100.53 -0.296135C100.28 1.71085 100.098 4.01667 101.218 5.53124C99.3873 -1.18247 94.1217 -6.32726 88.3001 -7.07776" stroke="#6C63FF" stroke-width="3" stroke-miterlimit="10"/>
<path opacity="0.1" d="M-3.64023 213.837C-3.64023 216.071 25.5773 217.052 49.934 217.052L44.8095 209.974C20.4528 209.974 -3.64023 211.603 -3.64023 213.837Z" fill="#6C63FF"/>
<path opacity="0.1" d="M49.8511 69.0517C49.3326 68.7096 48.6344 69.0517 48.2784 69.5865C47.9629 70.1694 47.7756 70.8303 47.7323 71.5132C47.5353 73.0113 47.3867 74.7257 48.2784 75.8385C47.5193 73.3429 46.1595 71.14 44.3538 69.4806C42.548 67.8212 40.3689 66.7721 38.0647 66.4526" stroke="#6C63FF" stroke-width="3" stroke-miterlimit="10"/>
<path d="M11.2224 202.087C11.568 202.83 12.2178 203.286 12.8434 203.691C17.19 206.526 21.7696 208.871 26.5169 210.694C26.6352 210.772 26.7673 210.818 26.9036 210.83C27.0398 210.842 27.1767 210.82 27.3041 210.763C27.4315 210.707 27.5462 210.619 27.6397 210.506C27.7331 210.392 27.803 210.256 27.8442 210.108C28.3903 209.062 28.9882 207.356 28.8465 205.975C29.2959 205.666 29.6218 205.169 29.7556 204.591C29.9427 203.889 30.2275 203.225 30.5989 202.625C31.2453 201.516 32.0264 200.404 32.1301 199.055C32.1212 198.574 32.1618 198.094 32.2511 197.624C32.4343 197.002 32.9216 196.593 33.288 196.098C33.8583 195.312 34.1314 194.297 34.3906 193.31C35.469 189.209 36.5474 185.108 37.4461 180.944C37.7364 179.595 38.006 178.242 38.4035 176.933C38.7491 175.785 39.1915 174.684 39.6305 173.583C41.2005 169.592 43.027 165.739 45.0951 162.054C45.4184 163.292 45.8098 164.505 46.2668 165.687C46.5018 166.297 46.7541 166.898 46.9926 167.508C47.8947 169.804 47.7323 172.753 48.8418 174.912C49.3027 175.798 49.7566 176.683 50.2036 177.566C50.4574 177.999 50.6542 178.472 50.7877 178.97C50.8603 179.316 50.8672 179.678 50.9191 180.027C51.1541 181.6 52.2775 182.709 52.8996 184.113C53.4699 185.395 53.5909 186.865 53.9365 188.277C54.7557 191.541 56.7673 194.376 56.9713 197.777C56.997 198.695 56.9774 199.614 56.9125 200.529C56.8609 202.133 56.9547 203.738 57.1925 205.319C57.2113 205.478 57.2485 205.634 57.3031 205.783C55.5322 208.781 52.8049 210.876 49.699 211.626C49.1114 211.76 48.4374 211.901 48.1298 212.515C47.76 213.246 48.1782 214.252 48.8211 214.646C49.464 215.039 50.2036 215 50.8949 214.929C55.8538 214.457 60.7594 213.427 65.5397 211.854C65.7812 211.797 66.0025 211.66 66.1756 211.461C66.346 211.173 66.4207 210.826 66.3865 210.482C66.384 209.211 66.1238 207.958 65.6261 206.821L65.9717 206.683C66.1653 205.11 65.4533 203.589 64.9002 202.13C63.9394 199.586 63.414 196.837 62.6536 194.191C61.1881 189.079 58.8204 184.31 58.2501 178.962C58.0946 177.491 57.7075 175.997 57.6245 174.519C57.4586 171.507 57.2789 168.479 56.7017 165.546C56.2178 163.131 55.4539 160.827 54.9735 158.385C54.493 155.943 54.3375 153.376 55.0426 151.04C55.2431 150.372 55.5127 149.738 55.6958 149.074C56.3871 146.475 55.727 143.659 55.0564 141.049C54.8444 140.223 54.6347 139.4 54.4273 138.579C54.1474 137.498 53.8709 136.413 53.5667 135.339C53.6082 135.296 53.6462 135.253 53.6877 135.202C54.296 134.415 54.2891 133.212 54.7246 132.272C54.9389 131.788 55.2638 131.391 55.4919 130.919C55.923 129.899 56.034 128.742 55.8064 127.64C55.6233 126.539 55.2569 125.493 54.9804 124.42C54.2295 121.474 54.1723 118.355 54.8145 115.376C55.0944 114.106 55.5057 112.859 55.5645 111.55C55.5844 110.675 55.5136 109.799 55.3537 108.943C54.8179 105.64 53.7672 102.29 51.6346 100.107C50.4974 98.9279 48.9593 97.8937 48.8384 96.1007C48.6548 96.0202 48.4528 96.0119 48.2646 96.0771C48.1672 95.6691 48.1024 95.2519 48.071 94.8306H48.0883C48.194 94.8442 48.3006 94.8442 48.4063 94.8306C48.4957 94.824 48.5829 94.7959 48.6621 94.748C48.7068 94.7178 48.7485 94.6822 48.7865 94.6419C48.9209 94.4851 49.0371 94.3093 49.1321 94.1189C49.2739 93.8515 49.4017 93.5645 49.5089 93.3679C49.616 93.1713 49.7888 92.8567 49.9236 92.5814C50.3269 91.795 50.7013 90.9955 51.047 90.1829V90.1514C51.0815 90.0767 51.1127 89.998 51.1438 89.9233L51.1852 89.8172L51.2475 89.656C51.2475 89.6166 51.2786 89.5734 51.2924 89.5341C51.3062 89.4947 51.3304 89.4358 51.3477 89.3846L51.3961 89.2549C51.4134 89.2077 51.4272 89.1605 51.4445 89.1094C51.4615 89.0658 51.4765 89.0211 51.4894 88.9757C51.5067 88.9285 51.5205 88.8813 51.5343 88.8341C51.5482 88.787 51.562 88.7437 51.5793 88.6965C51.5966 88.6493 51.6035 88.6022 51.6173 88.555L51.6588 88.4134C51.6588 88.3662 51.6795 88.323 51.6933 88.2758L51.7279 88.1303L51.759 87.9927L51.7901 87.8433C51.7901 87.8 51.7901 87.7567 51.8143 87.7096C51.8385 87.6624 51.8143 87.6073 51.8385 87.5562C51.8627 87.5051 51.8385 87.4697 51.8385 87.4264L51.8592 87.2731V87.1433C51.8592 87.0883 51.8592 87.0372 51.8592 86.9861C51.8592 86.9349 51.8592 86.8996 51.8592 86.8563C51.8592 86.813 51.8592 86.7501 51.8592 86.699V86.6086C51.8592 86.5535 51.8592 86.5024 51.8592 86.4474C51.8592 86.3923 51.8592 86.3687 51.8592 86.3294C51.8592 86.2901 51.8592 86.2193 51.8592 86.1642C51.8592 86.1092 51.8592 86.0895 51.8592 86.0541C51.8428 85.9001 51.8162 85.7476 51.7798 85.598C51.5469 84.6822 51.0743 83.8688 50.4248 83.2663C49.7967 82.6828 49.0983 82.2048 48.351 81.8468C48.1691 81.7672 48.0025 81.6483 47.8602 81.4968C47.694 81.2221 47.556 80.9265 47.4489 80.6161C47.1447 80.0105 46.5364 79.7392 45.9661 79.578C45.3958 79.4168 44.784 79.3145 44.307 78.9017C44.2644 78.8599 44.2151 78.8279 44.1618 78.8073C44.0887 78.8006 44.0154 78.8184 43.951 78.8584L42.6203 79.5308C42.6069 79.4368 42.5772 79.3468 42.5331 79.266C42.4889 79.1852 42.431 79.1151 42.3629 79.0599C42.2947 79.0046 42.2176 78.9654 42.136 78.9443C42.0544 78.9232 41.97 78.9207 41.8875 78.937C41.5594 79.0274 41.2609 79.2225 41.0269 79.4993C40.9863 79.4527 40.9576 79.3945 40.9436 79.3308C40.9296 79.2672 40.9309 79.2004 40.9474 79.1376L39.9105 79.924C39.7826 80.0184 39.5475 80.042 39.5648 79.8611C38.9881 80.5778 38.488 81.3697 38.0751 82.2203C37.9459 82.4802 37.8372 82.7526 37.7502 83.0343V83.0343C37.7502 83.0933 37.7191 83.1523 37.7053 83.2112C37.7037 83.223 37.7037 83.2349 37.7053 83.2466C37.7053 83.2977 37.6845 83.3528 37.6776 83.4078C37.676 83.4235 37.676 83.4394 37.6776 83.455C37.6776 83.5219 37.6776 83.5927 37.6776 83.6595C37.6741 83.7355 37.6741 83.8116 37.6776 83.8876C37.6884 84.1061 37.7493 84.3176 37.8542 84.5011C37.9591 84.6846 38.1044 84.8337 38.2756 84.9335C38.4081 84.9895 38.5491 85.0149 38.6904 85.0082C38.9875 84.9681 39.2812 84.8997 39.5683 84.8037C39.6615 84.7778 39.7562 84.7594 39.8517 84.7487C39.8966 84.7448 39.9416 84.7448 39.9865 84.7487C40.1672 84.7439 40.3436 84.8122 40.4842 84.9414L40.505 84.965C39.75 85.5829 39.1363 86.3978 38.7154 87.3413C38.2944 88.2847 38.0784 89.3293 38.0855 90.3873C38.084 91.4284 38.2921 92.456 38.6938 93.3915C38.5557 93.4784 38.4418 93.6079 38.3654 93.7651C38.289 93.9223 38.2531 94.1008 38.2618 94.2801C38.1714 93.9786 38.1236 93.6628 38.1201 93.3443C37.5532 93.2145 37.1419 93.9695 36.938 94.6183C36.5186 96.0849 36.194 97.5844 35.9667 99.1048C35.7905 100.115 35.6211 101.126 35.4413 102.136C35.2616 103.147 35.0957 104.232 34.9644 105.282C34.6591 108.008 34.7678 110.773 35.2858 113.457C35.2512 113.543 35.2201 113.634 35.189 113.72C35.0853 114.035 34.7916 114.302 34.757 114.637C34.5703 116.638 35.6833 118.443 36.734 120.012C36.8201 120.172 36.9386 120.307 37.0797 120.405C37.2337 120.478 37.4019 120.502 37.567 120.476C37.9859 120.453 38.4035 120.405 38.8183 120.334C38.8425 120.602 38.8701 120.865 38.8977 121.121C39.195 123.944 39.7031 126.767 39.6996 129.61C39.6962 132.453 39.2227 135.335 40.1801 137.867C40.3391 138.3 40.6467 138.654 40.6778 139.102H40.7366C40.1512 140.459 39.6724 141.872 39.3056 143.325C38.9254 145.032 38.8459 146.825 38.4208 148.516C38.0578 149.951 37.453 151.268 36.9656 152.668C36.172 154.942 35.7052 157.346 35.5831 159.789C35.57 160.911 35.3706 162.019 34.9955 163.057C34.4365 164.301 33.947 165.584 33.53 166.898C32.8387 169.234 31.6739 171.448 31.4561 173.921C31.3351 175.321 31.5114 176.815 30.9964 178.081C30.796 178.577 30.4987 179.005 30.2637 179.473C29.9205 180.223 29.6526 181.014 29.4652 181.832L26.0434 194.741C25.9139 195.451 25.6258 196.11 25.207 196.656C24.889 197.002 24.4707 197.191 24.17 197.549C23.6861 198.107 23.5652 198.925 23.5617 199.759C23.195 199.834 22.8392 199.967 22.5041 200.152C21.057 200.855 19.4997 201.218 17.9261 201.218C16.3524 201.218 14.7951 200.855 13.3481 200.152C12.795 199.881 12.166 199.558 11.6199 199.869C10.9804 200.246 10.8767 201.343 11.2224 202.087ZM38.483 104.303C38.688 103.234 39.073 102.221 39.6167 101.319C40.3909 99.8676 41.2066 98.4324 41.9463 96.95L42.1571 96.718C42.2159 96.9068 42.2712 97.1112 42.323 97.2882C42.4513 97.7922 42.554 98.3042 42.6307 98.8217C42.7399 99.4692 42.7724 100.13 42.7274 100.788L42.679 100.831C42.3995 101.035 42.1738 101.322 42.0258 101.661C41.9289 101.998 41.9289 102.361 42.0258 102.699L41.9947 102.738L42.0292 102.711C42.1502 103.253 42.3749 103.812 42.3023 104.362C42.2228 105.027 41.7527 105.51 41.4589 106.08C40.7677 107.453 40.9889 109.537 39.8517 110.378L39.831 110.433C39.5869 110.368 39.3594 110.239 39.1658 110.058C38.9723 109.877 38.8179 109.647 38.7145 109.387V109.387C38.8044 107.708 38.2514 105.986 38.483 104.303Z" fill="url(#paint0_linear)"/>
<path d="M66.8392 210.556C66.8758 210.897 66.7981 211.241 66.6215 211.52C66.4375 211.72 66.2073 211.856 65.9579 211.913C60.9673 213.467 55.8593 214.483 50.7013 214.948C49.9617 215.011 49.1805 215.059 48.5273 214.669C47.874 214.28 47.4385 213.285 47.836 212.566C48.1574 211.96 48.8729 211.819 49.4709 211.689C52.7079 210.971 55.5759 208.857 57.4759 205.791C57.7029 205.351 57.998 204.962 58.3469 204.642C59.0105 204.127 59.8919 204.249 60.6765 204.426C62.0591 204.749 63.8944 205.13 65.1422 205.901C66.3899 206.671 66.8185 209.05 66.8392 210.556Z" fill="#3F3D56"/>
<path opacity="0.1" d="M66.8392 210.556C66.8758 210.897 66.7981 211.241 66.6215 211.52C66.4375 211.72 66.2073 211.856 65.9579 211.913C60.9673 213.467 55.8593 214.483 50.7013 214.948C49.9617 215.011 49.1805 215.059 48.5273 214.669C47.874 214.28 47.4385 213.285 47.836 212.566C48.1574 211.96 48.8729 211.819 49.4709 211.689C52.7079 210.971 55.5759 208.857 57.4759 205.791C57.7029 205.351 57.998 204.962 58.3469 204.642C59.0105 204.127 59.8919 204.249 60.6765 204.426C62.0591 204.749 63.8944 205.13 65.1422 205.901C66.3899 206.671 66.8185 209.05 66.8392 210.556Z" fill="black"/>
<path d="M26.6724 210.175C26.5377 210.483 26.3075 210.724 26.0261 210.851C25.7775 210.899 25.522 210.865 25.2899 210.753C20.361 208.963 15.5909 206.65 11.0426 203.844C10.3928 203.451 9.71535 202.995 9.35243 202.271C8.9895 201.548 9.10009 200.435 9.76718 200.069C10.3271 199.763 10.9838 200.069 11.5576 200.349C14.6178 201.752 18.0371 201.752 21.0973 200.349C21.4985 200.12 21.933 199.976 22.3796 199.924C23.178 199.904 23.8659 200.545 24.4534 201.186C25.4627 202.315 26.8142 203.773 27.4916 205.189C28.1691 206.605 27.3741 208.897 26.6724 210.175Z" fill="#3F3D56"/>
<path opacity="0.1" d="M26.6724 210.175C26.5377 210.483 26.3075 210.724 26.0261 210.851C25.7775 210.899 25.522 210.865 25.2899 210.753C20.361 208.963 15.5909 206.65 11.0426 203.844C10.3928 203.451 9.71535 202.995 9.35243 202.271C8.9895 201.548 9.10009 200.435 9.76718 200.069C10.3271 199.763 10.9838 200.069 11.5576 200.349C14.6178 201.752 18.0371 201.752 21.0973 200.349C21.4985 200.12 21.933 199.976 22.3796 199.924C23.178 199.904 23.8659 200.545 24.4534 201.186C25.4627 202.315 26.8142 203.773 27.4916 205.189C28.1691 206.605 27.3741 208.897 26.6724 210.175Z" fill="black"/>
<path d="M53.0171 134.875C53.5321 136.448 53.9642 138.021 54.3997 139.594L55.0564 142.032C55.7477 144.607 56.439 147.383 55.7235 149.951C55.5334 150.615 55.2534 151.241 55.0322 151.917C54.2995 154.221 54.4688 156.781 54.9596 159.168C55.4504 161.554 56.2454 163.847 56.75 166.245C57.3618 169.14 57.5381 172.144 57.7109 175.097C57.7973 176.555 58.1983 178.03 58.3642 179.481C58.9587 184.754 61.4231 189.48 62.9508 194.506C63.7423 197.113 64.2885 199.822 65.2943 202.334C65.868 203.773 66.6111 205.264 66.4107 206.825C63.6006 207.957 60.4864 207.938 57.8388 206.384C57.672 206.316 57.5273 206.192 57.4237 206.029C57.3201 205.865 57.2623 205.67 57.2581 205.468C57.0151 203.912 56.9224 202.329 56.9816 200.75C57.0478 199.85 57.0674 198.947 57.0404 198.044C56.8295 194.69 54.7315 191.895 53.8812 188.67C53.5356 187.298 53.3766 185.831 52.7821 184.565C52.1323 183.181 50.964 182.076 50.7082 180.535C50.6529 180.189 50.646 179.835 50.5734 179.493C50.4315 178.998 50.2253 178.53 49.9617 178.105L48.5515 175.474C47.3936 173.343 47.5629 170.433 46.6262 168.168C46.3774 167.567 46.1112 166.989 45.8658 166.375C45.3922 165.211 44.9847 164.013 44.6457 162.789C42.4934 166.405 40.5868 170.203 38.9427 174.149C38.467 175.226 38.0402 176.329 37.6638 177.456C37.249 178.746 36.9725 180.083 36.6649 181.412C35.7317 185.521 34.5911 189.567 33.4816 193.601C33.212 194.576 32.9251 195.567 32.334 196.354C31.9538 196.841 31.4492 197.242 31.2556 197.86C31.1637 198.321 31.1219 198.794 31.1312 199.267C31.0206 200.6 30.2083 201.697 29.5343 202.806C29.1474 203.401 28.8507 204.066 28.6564 204.772C28.5768 205.089 28.4386 205.382 28.251 205.633C28.0634 205.883 27.8307 206.085 27.5687 206.225C27.3067 206.365 27.0214 206.439 26.7321 206.443C26.4427 206.447 26.156 206.38 25.8913 206.247H25.8636C25.5895 206.091 25.326 205.913 25.0756 205.712C24.4212 205.245 23.8005 204.719 23.2195 204.139C22.7054 203.575 22.2422 202.953 21.8369 202.283C21.7673 202.169 21.7219 202.038 21.7043 201.901C21.6867 201.763 21.6974 201.623 21.7357 201.491C21.7739 201.359 21.8385 201.239 21.9244 201.141C22.0104 201.042 22.1153 200.967 22.231 200.923C22.1584 199.83 22.1376 198.583 22.8289 197.828C23.1504 197.474 23.5859 197.285 23.9177 196.947C24.3496 196.417 24.6501 195.766 24.7887 195.06C25.9685 190.834 27.146 186.609 28.3211 182.383C28.5175 181.57 28.7971 180.786 29.1541 180.047C29.3995 179.583 29.7072 179.162 29.918 178.675C30.4537 177.424 30.2636 175.954 30.395 174.57C30.6196 172.128 31.8225 169.95 32.5518 167.645C32.9881 166.344 33.4984 165.077 34.0795 163.851C34.4701 162.834 34.6781 161.74 34.6913 160.63C34.8193 158.213 35.3055 155.837 36.1291 153.604C36.6338 152.235 37.2663 150.926 37.6431 149.507C38.0889 147.839 38.1684 146.07 38.5694 144.395C38.9542 142.951 39.4552 141.55 40.066 140.211C40.5672 139.031 41.0822 137.824 41.9083 136.908C43.2632 135.406 45.2575 134.914 47.1482 134.848C49.0388 134.781 51.1334 135.099 53.0171 134.875Z" fill="#3F3D56"/>
<path d="M41.414 104.252C43.8473 102.616 46.2541 100.928 48.6344 99.1875C48.0647 98.3137 47.7493 97.2593 47.7323 96.1716C47.7323 96.1283 47.7323 96.085 47.7323 96.0418C47.6977 94.984 48.0503 94.0757 46.8786 94.2134C45.753 94.3785 44.6403 94.6414 43.5501 94.9998C43.239 95.0902 40.543 96.2187 40.4393 96.1047C41.0402 96.9157 41.4842 97.8616 41.7423 98.8808C41.8751 99.3779 41.9824 99.8834 42.0638 100.395C42.2988 101.747 42.3092 103.336 41.414 104.252Z" fill="#A0616A"/>
<path d="M38.1477 122.391C38.4587 125.175 38.9876 127.963 38.9841 130.762C38.9807 133.562 38.4864 136.413 39.4853 138.921C39.6512 139.346 39.9692 139.676 40.0038 140.14C41.3863 140.412 42.7343 139.676 44.0512 139.146C45.2587 138.664 46.5115 138.345 47.7841 138.194C48.8211 138.076 49.8856 138.068 50.9157 137.844C51.9421 137.661 52.8903 137.11 53.622 136.271C54.2545 135.485 54.2476 134.305 54.6901 133.381C54.9147 132.905 55.2534 132.516 55.4919 132.048C55.9377 131.049 56.053 129.9 55.8168 128.812C55.5773 127.737 55.29 126.677 54.9562 125.635C54.1722 122.738 54.1124 119.65 54.7834 116.717C55.0737 115.462 55.4954 114.232 55.5645 112.938C55.5852 112.074 55.512 111.21 55.3468 110.366C54.7868 107.111 53.6911 103.804 51.4721 101.653C50.2866 100.501 48.6828 99.4667 48.5584 97.7208C48.0468 97.4928 47.4972 97.882 47.0583 98.2516L42.1294 102.384C41.8369 102.581 41.5977 102.865 41.4382 103.206C41.1305 104.044 41.8391 104.964 41.725 105.868C41.6421 106.525 41.1513 107.001 40.8471 107.567C40.1213 108.916 40.3563 110.972 39.1707 111.802C39.0636 112.053 38.9634 112.313 38.8735 112.588C38.45 113.962 38.1659 115.387 38.0267 116.835C37.8613 118.685 37.902 120.552 38.1477 122.391V122.391Z" fill="#3F3D56"/>
<path opacity="0.1" d="M40.4531 96.1124C41.054 96.9234 41.498 97.8693 41.7562 98.8885C42.1488 98.9882 42.5498 99.0384 42.9521 99.0379C44.9637 99.0379 46.3117 96.4152 47.3106 94.6143C47.2795 93.5566 48.0503 94.0835 46.8785 94.2211C45.753 94.3863 44.6403 94.6492 43.55 95.0075C43.239 95.098 40.543 96.2265 40.4531 96.1124Z" fill="black"/>
<path d="M42.9521 98.4994C46.0751 98.4994 48.6068 95.6193 48.6068 92.0665C48.6068 88.5137 46.0751 85.6335 42.9521 85.6335C39.8292 85.6335 37.2975 88.5137 37.2975 92.0665C37.2975 95.6193 39.8292 98.4994 42.9521 98.4994Z" fill="#A0616A"/>
<path d="M38.6262 96.6213L39.9335 98.2506C40.362 98.7847 41.09 98.8224 41.5595 98.3349L45.9504 93.7753C46.4199 93.2878 46.453 92.4596 46.0245 91.9255L44.7172 90.2963C44.2887 89.7622 43.5607 89.7244 43.0912 90.2119L38.7004 94.7715C38.2309 95.259 38.1977 96.0872 38.6262 96.6213Z" fill="#3F3D56"/>
<path opacity="0.1" d="M38.6262 96.6213L39.9335 98.2506C40.362 98.7847 41.09 98.8224 41.5595 98.3349L45.9504 93.7753C46.4199 93.2878 46.453 92.4596 46.0245 91.9255L44.7172 90.2963C44.2887 89.7622 43.5607 89.7244 43.0912 90.2119L38.7004 94.7715C38.2309 95.259 38.1977 96.0872 38.6262 96.6213Z" fill="black"/>
<path d="M43.3047 93.8082C43.5643 93.8082 43.7747 93.5688 43.7747 93.2734C43.7747 92.9781 43.5643 92.7386 43.3047 92.7386C43.045 92.7386 42.8346 92.9781 42.8346 93.2734C42.8346 93.5688 43.045 93.8082 43.3047 93.8082Z" fill="white"/>
<path opacity="0.1" d="M38.1477 122.391C42.5097 121.659 46.4707 118.679 49.502 114.983C50.0686 114.375 50.507 113.628 50.7843 112.8C50.9367 112.108 50.9892 111.392 50.9398 110.681L50.8673 107.842C50.8361 106.599 50.7912 105.31 50.2624 104.224C49.7336 103.139 48.5549 102.357 47.5387 102.809C44.8669 103.988 43.1284 106.686 41.6006 109.446C41.1637 110.306 40.6872 111.14 40.1731 111.943C39.9139 112.317 39.5614 112.698 39.1362 112.647C39.0465 112.638 38.9588 112.611 38.877 112.568C38.4535 113.943 38.1694 115.367 38.0302 116.815C37.8622 118.672 37.9017 120.545 38.1477 122.391Z" fill="black"/>
<path d="M37.7571 105.813C37.9738 104.75 38.3757 103.747 38.9392 102.864C40.6294 99.8559 42.5304 96.9186 43.4326 93.4937C42.1157 93.765 41.9083 96.3445 40.5741 96.4585L40.6778 94.5986C40.6778 94.2841 40.6778 93.9027 40.4531 93.7375C40.2285 93.5724 39.8275 93.7886 39.6789 94.0992C39.5303 94.4099 39.4992 94.7874 39.3609 95.1059C39.2226 95.4244 38.8977 95.7075 38.6109 95.5659L38.4934 94.9486C38.37 94.9192 38.2424 94.9222 38.1202 94.9573C37.9981 94.9924 37.8845 95.0587 37.7882 95.1512C37.692 95.2437 37.6155 95.3599 37.5646 95.491C37.5136 95.6222 37.4897 95.7648 37.4944 95.908C37.4003 95.6115 37.35 95.2992 37.3458 94.984C36.7548 94.8581 36.3262 95.6013 36.1153 96.2423C35.6777 97.6851 35.338 99.1639 35.0992 100.666L34.5565 103.658C34.3664 104.692 34.1797 105.726 34.0553 106.768C33.7297 109.534 33.8587 112.345 34.4355 115.057C35.1599 114.601 35.8625 114.1 36.5405 113.559C37.0624 113.056 37.6465 112.486 37.8435 111.719C38.3309 109.784 37.4703 107.759 37.7571 105.813Z" fill="#A0616A"/>
<path d="M47.5388 102.007C48.5549 101.554 49.7336 102.337 50.2624 103.422C50.7912 104.507 50.8362 105.781 50.8673 107.04L50.9364 109.887C50.9884 110.598 50.9371 111.314 50.7843 112.006C50.5061 112.833 50.0692 113.578 49.5054 114.188C46.1527 118.274 41.6698 121.478 36.7617 121.75C36.5898 121.776 36.4149 121.752 36.2536 121.679C36.1141 121.579 35.996 121.445 35.908 121.286C34.8123 119.737 33.6544 117.955 33.8341 115.981C33.8653 115.651 34.1798 115.384 34.2835 115.077C34.9419 113.29 36.1496 111.836 37.6811 110.988L37.9784 110.83C38.0928 111.091 38.2567 111.319 38.4582 111.498C38.6596 111.678 38.8936 111.804 39.1432 111.868C39.5579 111.916 39.914 111.538 40.1801 111.165C40.6942 110.36 41.1707 109.525 41.6076 108.664C43.1284 105.876 44.8704 103.19 47.5388 102.007Z" fill="#3F3D56"/>
<path d="M47.1896 96.2738C46.7092 95.9907 46.6331 95.2632 46.5848 94.6498C46.5308 93.9356 46.435 93.2262 46.2979 92.5265C46.1492 91.74 45.9039 90.93 45.3163 90.5132C45.11 90.368 44.8746 90.2847 44.6323 90.2711C44.39 90.2575 44.1487 90.3141 43.9308 90.4354C43.7129 90.5568 43.5256 90.7391 43.3865 90.9652C43.2474 91.1913 43.161 91.4538 43.1353 91.7283C43.1421 91.8594 43.1078 91.9889 43.0385 92.0939C42.9922 92.1434 42.9348 92.1775 42.8726 92.1922C42.6013 92.263 42.3166 92.2159 42.0743 92.0602C41.832 91.9045 41.6495 91.6515 41.5626 91.3508C41.4624 90.9576 41.5384 90.4503 41.293 90.1279C41.0476 89.8055 40.7573 89.8133 40.5188 89.601C40.3743 89.4385 40.2642 89.2408 40.1965 89.0229C40.1289 88.8049 40.1055 88.5724 40.1282 88.3427C40.1282 87.7568 40.1973 87.0569 39.7826 86.6952C39.157 86.1407 38.2168 87.0215 37.4806 86.6952C37.2767 86.5824 37.1074 86.4024 36.9946 86.1788C36.8818 85.9551 36.8308 85.698 36.8481 85.4408C36.8905 84.9261 37.045 84.4315 37.2974 84.0017C37.7303 83.1586 38.2514 82.3782 38.8493 81.6778C38.8493 81.8508 39.0878 81.8312 39.2192 81.7368L40.3114 80.9818C40.2931 81.0445 40.2916 81.112 40.3069 81.1756C40.3223 81.2393 40.3539 81.2964 40.3978 81.3397C40.6459 81.0659 40.9557 80.8754 41.293 80.7892C41.4624 80.7533 41.6375 80.7946 41.7804 80.9042C41.9233 81.0138 42.0226 81.1829 42.0569 81.375L43.4394 80.6948C43.4956 80.6509 43.5636 80.6311 43.6314 80.639C43.6991 80.647 43.7622 80.6821 43.8093 80.7381C44.307 81.1313 44.943 81.2453 45.5375 81.4026C46.132 81.5599 46.7645 81.8312 47.0825 82.4288C47.1962 82.7355 47.3412 83.0258 47.5145 83.2939C47.6675 83.447 47.8446 83.5657 48.0365 83.6439C48.8155 83.9924 49.5483 84.4622 50.214 85.0398C50.8819 85.6246 51.3755 86.429 51.6277 87.344C52.0009 88.8736 51.4617 90.4897 50.8361 91.9013C50.3589 92.98 49.8233 94.024 49.2324 95.0273C49.0111 95.4205 48.707 96.1637 48.351 96.3917C47.9641 96.5143 47.5513 96.4723 47.1896 96.2738V96.2738Z" fill="#3F3D56"/>
<path opacity="0.1" d="M37.491 85.0909C38.2272 85.4133 39.1673 84.5325 39.7929 85.0909C40.1973 85.4526 40.1386 86.1525 40.1386 86.7384C40.1159 86.9681 40.1393 87.2006 40.2069 87.4185C40.2746 87.6365 40.3847 87.8341 40.5292 87.9967C40.7677 88.209 41.1064 88.2601 41.3034 88.5236C41.5004 88.787 41.4728 89.3375 41.573 89.7465C41.6599 90.0472 41.8424 90.3002 42.0847 90.4559C42.327 90.6116 42.6117 90.6586 42.883 90.5879C42.9452 90.5731 43.0026 90.5391 43.0489 90.4896C43.1182 90.3846 43.1525 90.255 43.1457 90.1239C43.1713 89.8495 43.2578 89.587 43.3969 89.3609C43.536 89.1348 43.7233 88.9525 43.9412 88.8311C44.1591 88.7098 44.4004 88.6532 44.6427 88.6668C44.885 88.6804 45.1203 88.7637 45.3267 88.9089C45.9142 89.3257 46.1597 90.1515 46.3083 90.9221C46.4454 91.6219 46.5412 92.3312 46.5952 93.0455C46.6436 93.6589 46.7196 94.3863 47.2 94.6694C47.5676 94.8739 47.9889 94.916 48.3821 94.7874C48.7278 94.5593 49.0423 93.8044 49.2635 93.423C49.855 92.4133 50.3907 91.3627 50.8673 90.2773C51.2642 89.4381 51.5506 88.5373 51.7176 87.6035C51.9664 89.0505 51.4549 90.5525 50.8673 91.8855C50.39 92.9643 49.8544 94.0083 49.2635 95.0115C49.0423 95.4047 48.7381 96.1479 48.3821 96.376C47.9889 96.5046 47.5676 96.4625 47.2 96.258C46.7196 95.9749 46.6436 95.2475 46.5952 94.634C46.5412 93.9198 46.4454 93.2104 46.3083 92.5107C46.1597 91.7243 45.9142 90.9143 45.3267 90.4975C45.1203 90.3523 44.885 90.269 44.6427 90.2554C44.4004 90.2418 44.1591 90.2983 43.9412 90.4197C43.7233 90.5411 43.536 90.7233 43.3969 90.9494C43.2578 91.1755 43.1713 91.4381 43.1457 91.7125C43.1525 91.8436 43.1182 91.9732 43.0489 92.0782C43.0026 92.1277 42.9452 92.1617 42.883 92.1765C42.6117 92.2472 42.327 92.2001 42.0847 92.0445C41.8424 91.8888 41.6599 91.6358 41.573 91.335C41.4728 90.9418 41.5488 90.4346 41.3034 90.1121C41.058 89.7897 40.7677 89.7976 40.5292 89.5852C40.3847 89.4227 40.2746 89.2251 40.2069 89.0071C40.1393 88.7892 40.1159 88.5566 40.1386 88.327C40.1386 87.7411 40.2077 87.0412 39.7929 86.6794C39.1673 86.125 38.2272 87.0058 37.491 86.6794C37.2871 86.5666 37.1178 86.3867 37.005 86.163C36.8922 85.9393 36.8412 85.6822 36.8585 85.4251C36.8707 85.1413 36.9293 84.8626 37.0313 84.6033C37.1306 84.8212 37.293 84.9934 37.491 85.0909V85.0909Z" fill="black"/>
</g>
<defs>
<linearGradient id="paint0_linear" x1="38.7111" y1="214.976" x2="38.7111" y2="78.7994" gradientUnits="userSpaceOnUse">
<stop stop-color="#808080" stop-opacity="0.25"/>
<stop offset="0.54" stop-color="#808080" stop-opacity="0.12"/>
<stop offset="1" stop-color="#808080" stop-opacity="0.1"/>
</linearGradient>
<clipPath id="clip0">
<rect width="199" height="231" fill="white"/>
</clipPath>
</defs>
</svg>
