<svg width="228" height="190" viewBox="0 0 228 190" fill="none" xmlns="http://www.w3.org/2000/svg">
<path d="M130.799 38.9307V183.382H50.7087V0.949707L130.799 38.9307Z" fill="url(#paint0_linear)"/>
<path d="M56.4598 77.833L125.218 95.2932V66.3279L56.4598 38.2084V77.833Z" fill="url(#paint1_linear)"/>
<path d="M117.295 93.4909L119.277 93.949V64.0877L117.295 63.3326V93.4909Z" fill="white"/>
<path d="M107.958 91.2937L109.938 91.7644V60.491L107.958 59.7158V91.2937Z" fill="white"/>
<path d="M98.6194 89.0133L100.601 89.5041V56.7961L98.6194 56.0007V89.0133Z" fill="white"/>
<path d="M89.2827 86.6625L91.2646 87.1659V53.0132L89.2827 52.2002V86.6625Z" fill="white"/>
<path d="M79.946 84.236L81.9258 84.7571V49.147L79.946 48.3164V84.236Z" fill="white"/>
<path d="M70.6071 81.7392L72.5891 82.2753V45.2004L70.6071 44.3522V81.7392Z" fill="white"/>
<path d="M61.2704 79.1796L63.2502 79.7258V41.1784L61.2704 40.3151V79.1796Z" fill="white"/>
<path opacity="0.32" d="M56.4598 41.6642L125.218 68.8525V66.3279L56.4598 38.2084V41.6642Z" fill="#515C6E"/>
<path opacity="0.6" d="M85.8832 50.7956L98.6194 89.0132L93.3954 87.7069L81.2958 48.8827L85.8832 50.7956Z" fill="white"/>
<path opacity="0.6" d="M60.8723 40.1414L73.6107 82.5498L68.3845 81.1352L56.2871 38.1328L60.8723 40.1414Z" fill="white"/>
<path d="M56.4598 125.08L125.218 136.074V104.496L56.4598 85.4448V125.08Z" fill="url(#paint2_linear)"/>
<path d="M117.295 134.873L119.277 135.175V102.857L117.295 102.308V134.873Z" fill="white"/>
<path d="M107.958 133.425L109.938 133.735V100.264L107.958 99.713V133.425Z" fill="white"/>
<path d="M98.6194 131.95L100.601 132.262V97.6616L98.6194 97.1079V131.95Z" fill="white"/>
<path d="M89.2827 130.45L91.2646 130.77V95.0541L89.2827 94.5029V130.45Z" fill="white"/>
<path d="M79.946 128.933L81.9258 129.257V92.4516L79.946 91.9004V128.933Z" fill="white"/>
<path d="M70.6071 127.405L72.5891 127.73V89.8643L70.6071 89.3181V127.405Z" fill="white"/>
<path d="M61.2704 125.869L63.2502 126.194V87.2968L61.2704 86.7532V125.869Z" fill="white"/>
<path opacity="0.32" d="M56.4598 88.9006L125.218 107.249V104.496L56.4598 85.4448V88.9006Z" fill="#515C6E"/>
<path opacity="0.6" d="M85.8832 93.5541L98.6194 131.95L93.3954 131.112L81.2958 92.2755L85.8832 93.5541Z" fill="white"/>
<path opacity="0.6" d="M60.8723 86.645L73.6107 127.898L68.3845 127.04L56.2871 85.399L60.8723 86.645Z" fill="white"/>
<path d="M201.962 181.824V146.647L119.316 132.225L120.622 181.514L201.962 181.824Z" fill="url(#paint3_linear)"/>
<path d="M77.2246 183.382V141.354L120.622 131.94V181.514L77.2246 183.382Z" fill="#002F76"/>
<path d="M223.606 144.777L201.962 146.647L119.316 132.225L143.244 127.032L223.606 144.777Z" fill="#1B2473"/>
<path opacity="0.18" d="M223.606 144.777L201.962 146.647L119.316 132.225L143.244 127.032L223.606 144.777Z" fill="#1B2473"/>
<path d="M180.889 142.97V181.824H166.245V140.412L180.889 142.97Z" fill="url(#paint4_linear)"/>
<path d="M197.09 181.542V145.706L185.507 143.775V181.542H197.09Z" fill="url(#paint5_linear)"/>
<path d="M23.3811 26.7889L50.7087 0.949707V183.382H23.3811V26.7889Z" fill="url(#paint6_linear)"/>
<path d="M27.2816 111.221L39.9172 108.716V38.5859L27.2816 46.0991V111.221Z" fill="url(#paint7_linear)"/>
<path opacity="0.6" d="M27.2817 51.6591L39.9172 67.0931V72.5549L27.2817 57.4657V51.6591Z" fill="white"/>
<path opacity="0.6" d="M27.2817 77.6417L39.9172 95.0742V100.461L27.2817 82.8569V77.6417Z" fill="white"/>
<path opacity="0.32" d="M27.2816 47.3072L39.9172 39.8872V38.5859L27.2816 46.0991V47.3072Z" fill="#515C6E"/>
<path opacity="0.32" d="M27.2817 89.7182L39.9172 85.5602V84.2841L27.2817 88.5327V89.7182Z" fill="#515C6E"/>
<path opacity="0.32" d="M27.2817 67.808L39.9172 61.9636V60.6849L27.2817 66.6225V67.808Z" fill="#515C6E"/>
<path opacity="0.18" d="M29.397 21.1006V175.617H23.519L23.3811 26.7889L29.397 21.1006Z" fill="#6F2C20"/>
<path d="M222.252 92.1672V130.407L143.244 111.286V61.6565L222.252 92.1672Z" fill="url(#paint8_linear)"/>
<path d="M152.273 107.738L214.403 125.573V100.474L152.273 76.1044V107.738Z" fill="url(#paint9_linear)"/>
<path d="M207.245 123.574L209.034 124.077V98.3788L207.245 97.6816V123.574Z" fill="white"/>
<path d="M198.807 121.195L200.597 121.701V95.0767L198.807 94.3745V121.195Z" fill="white"/>
<path d="M190.367 118.789L192.159 119.3V91.7592L190.367 91.0544V118.789Z" fill="white"/>
<path d="M181.932 116.363L183.722 116.879V88.4345L181.932 87.7323V116.363Z" fill="white"/>
<path d="M173.492 113.921L175.284 114.44V85.1144L173.492 84.4097V113.921Z" fill="white"/>
<path d="M165.057 111.467L166.846 111.988V81.7971L165.057 81.0948V111.467Z" fill="white"/>
<path d="M156.619 109.006L158.409 109.529V78.4949L156.619 77.7952V109.006Z" fill="white"/>
<path opacity="0.32" d="M152.273 78.8605L214.403 102.661V100.474L152.273 76.1044V78.8605Z" fill="#515C6E"/>
<path opacity="0.6" d="M178.859 86.5215L190.367 118.789L185.647 117.432L174.715 84.8905L178.859 86.5215Z" fill="white"/>
<path opacity="0.6" d="M156.261 77.6542L167.77 112.257L163.049 110.881L152.117 76.0433L156.261 77.6542Z" fill="white"/>
<path d="M77.2246 130.407V89.6754L143.244 61.6565V111.286L77.2246 130.407Z" fill="#002F76"/>
<g filter="url(#filter0_d)">
<path d="M143.244 48.8929L223.606 86.2523V99.9471L143.244 66.328V48.8929Z" fill="#1B2473"/>
</g>
<g filter="url(#filter1_d)">
<path d="M143.244 109.288L223.606 130.77V144.777L143.244 127.032V109.288Z" fill="#1B2473"/>
</g>
<g filter="url(#filter2_d)">
<path d="M77.2246 80.3374L143.244 48.8929V66.328L77.2246 94.6564V80.3374Z" fill="#1B2473"/>
</g>
<g filter="url(#filter3_d)">
<path d="M77.2246 127.032L143.244 109.288V127.032L77.2246 141.354V127.032Z" fill="#1B2473"/>
</g>
<path d="M128.069 142.242L154.906 147.019V175.466H128.069V142.242Z" fill="#929497"/>
<path d="M130.031 144.734L152.944 148.547V175.466H130.031V144.734Z" fill="#C4C5C7"/>
<path opacity="0.4" d="M152.944 168.736L138.506 168.134V171.205L130.031 170.999V175.466H152.944V168.736Z" fill="#929497"/>
<path d="M140.781 146.518L142.194 146.755V175.466H140.781V146.518Z" fill="#929497"/>
<path opacity="0.5" d="M130.031 146.441L152.944 150.045V148.547L130.031 144.734V146.441Z" fill="#515C6E"/>
<path opacity="0.42" d="M133.72 145.346L152.944 170.085V172.101L131.659 145.003L133.72 145.346Z" fill="#FFFCE6"/>
<path d="M55.692 143.652L77.2246 147.243V175.69H55.692V143.652Z" fill="#929497"/>
<path d="M57.2671 145.975L75.6517 148.842V175.69H57.2671V145.975Z" fill="#C4C5C7"/>
<path opacity="0.4" d="M75.6517 168.977L64.0662 168.517V171.519L57.2671 171.371V175.69H75.6517V168.977Z" fill="#929497"/>
<path d="M65.8929 147.286L67.026 147.462V175.69H65.8929V147.286Z" fill="#929497"/>
<path opacity="0.5" d="M57.2671 147.626L75.6517 150.334V148.842L57.2671 145.975V147.626Z" fill="#515C6E"/>
<path opacity="0.42" d="M60.2247 146.418L75.6517 170.324V172.333L58.5731 146.171L60.2247 146.418Z" fill="#FFFCE6"/>
<g filter="url(#filter4_d)">
<path d="M15.0573 175.37H222.252V183.382H15.0573V175.37Z" fill="#595959"/>
</g>
<path d="M15.0573 174.819H222.252V176.491H15.0573V174.819Z" fill="#959595"/>
<defs>
<filter id="filter0_d" x="139.244" y="48.8929" width="88.3616" height="59.0542" filterUnits="userSpaceOnUse" color-interpolation-filters="sRGB">
<feFlood flood-opacity="0" result="BackgroundImageFix"/>
<feColorMatrix in="SourceAlpha" type="matrix" values="0 0 0 0 0 0 0 0 0 0 0 0 0 0 0 0 0 0 127 0"/>
<feOffset dy="4"/>
<feGaussianBlur stdDeviation="2"/>
<feColorMatrix type="matrix" values="0 0 0 0 0 0 0 0 0 0 0 0 0 0 0 0 0 0 0.25 0"/>
<feBlend mode="normal" in2="BackgroundImageFix" result="effect1_dropShadow"/>
<feBlend mode="normal" in="SourceGraphic" in2="effect1_dropShadow" result="shape"/>
</filter>
<filter id="filter1_d" x="139.244" y="109.288" width="88.3616" height="43.4892" filterUnits="userSpaceOnUse" color-interpolation-filters="sRGB">
<feFlood flood-opacity="0" result="BackgroundImageFix"/>
<feColorMatrix in="SourceAlpha" type="matrix" values="0 0 0 0 0 0 0 0 0 0 0 0 0 0 0 0 0 0 127 0"/>
<feOffset dy="4"/>
<feGaussianBlur stdDeviation="2"/>
<feColorMatrix type="matrix" values="0 0 0 0 0 0 0 0 0 0 0 0 0 0 0 0 0 0 0.25 0"/>
<feBlend mode="normal" in2="BackgroundImageFix" result="effect1_dropShadow"/>
<feBlend mode="normal" in="SourceGraphic" in2="effect1_dropShadow" result="shape"/>
</filter>
<filter id="filter2_d" x="73.2246" y="48.8929" width="74.0197" height="53.7635" filterUnits="userSpaceOnUse" color-interpolation-filters="sRGB">
<feFlood flood-opacity="0" result="BackgroundImageFix"/>
<feColorMatrix in="SourceAlpha" type="matrix" values="0 0 0 0 0 0 0 0 0 0 0 0 0 0 0 0 0 0 127 0"/>
<feOffset dy="4"/>
<feGaussianBlur stdDeviation="2"/>
<feColorMatrix type="matrix" values="0 0 0 0 0 0 0 0 0 0 0 0 0 0 0 0 0 0 0.25 0"/>
<feBlend mode="normal" in2="BackgroundImageFix" result="effect1_dropShadow"/>
<feBlend mode="normal" in="SourceGraphic" in2="effect1_dropShadow" result="shape"/>
</filter>
<filter id="filter3_d" x="73.2246" y="109.288" width="74.0197" height="40.0662" filterUnits="userSpaceOnUse" color-interpolation-filters="sRGB">
<feFlood flood-opacity="0" result="BackgroundImageFix"/>
<feColorMatrix in="SourceAlpha" type="matrix" values="0 0 0 0 0 0 0 0 0 0 0 0 0 0 0 0 0 0 127 0"/>
<feOffset dy="4"/>
<feGaussianBlur stdDeviation="2"/>
<feColorMatrix type="matrix" values="0 0 0 0 0 0 0 0 0 0 0 0 0 0 0 0 0 0 0.25 0"/>
<feBlend mode="normal" in2="BackgroundImageFix" result="effect1_dropShadow"/>
<feBlend mode="normal" in="SourceGraphic" in2="effect1_dropShadow" result="shape"/>
</filter>
<filter id="filter4_d" x="11.0573" y="173.37" width="215.195" height="16.0115" filterUnits="userSpaceOnUse" color-interpolation-filters="sRGB">
<feFlood flood-opacity="0" result="BackgroundImageFix"/>
<feColorMatrix in="SourceAlpha" type="matrix" values="0 0 0 0 0 0 0 0 0 0 0 0 0 0 0 0 0 0 127 0"/>
<feOffset dy="2"/>
<feGaussianBlur stdDeviation="2"/>
<feColorMatrix type="matrix" values="0 0 0 0 0 0 0 0 0 0 0 0 0 0 0 0 0 0 0.25 0"/>
<feBlend mode="normal" in2="BackgroundImageFix" result="effect1_dropShadow"/>
<feBlend mode="normal" in="SourceGraphic" in2="effect1_dropShadow" result="shape"/>
</filter>
<linearGradient id="paint0_linear" x1="130.798" y1="92.1661" x2="50.7093" y2="92.1661" gradientUnits="userSpaceOnUse">
<stop stop-color="#172499"/>
<stop offset="1" stop-color="#1B2473"/>
</linearGradient>
<linearGradient id="paint1_linear" x1="90.839" y1="92.2892" x2="90.839" y2="38.9471" gradientUnits="userSpaceOnUse">
<stop stop-color="#5E5E5E"/>
<stop offset="0.914" stop-color="#BFBFBF"/>
</linearGradient>
<linearGradient id="paint2_linear" x1="90.839" y1="133.408" x2="90.839" y2="86.1011" gradientUnits="userSpaceOnUse">
<stop stop-color="#929497"/>
<stop offset="0.914" stop-color="#B3B3B3"/>
</linearGradient>
<linearGradient id="paint3_linear" x1="201.961" y1="157.024" x2="119.316" y2="157.024" gradientUnits="userSpaceOnUse">
<stop stop-color="#0E397B"/>
<stop offset="1" stop-color="#1B2473"/>
</linearGradient>
<linearGradient id="paint4_linear" x1="173.567" y1="128.978" x2="173.567" y2="180.781" gradientUnits="userSpaceOnUse">
<stop stop-color="#D9B091"/>
<stop offset="0.9946" stop-color="#0B264F"/>
</linearGradient>
<linearGradient id="paint5_linear" x1="191.298" y1="128.979" x2="191.298" y2="180.78" gradientUnits="userSpaceOnUse">
<stop stop-color="#D9B091"/>
<stop offset="0.9946" stop-color="#0B264F"/>
</linearGradient>
<linearGradient id="paint6_linear" x1="50.7093" y1="92.1661" x2="23.3801" y2="92.1661" gradientUnits="userSpaceOnUse">
<stop stop-color="#1B2473"/>
<stop offset="1" stop-color="#172499"/>
</linearGradient>
<linearGradient id="paint7_linear" x1="33.5991" y1="111.12" x2="33.5991" y2="39.0911" gradientUnits="userSpaceOnUse">
<stop stop-color="#929497"/>
<stop offset="0.914" stop-color="#B1B1B1"/>
</linearGradient>
<linearGradient id="paint8_linear" x1="222.253" y1="96.0324" x2="143.245" y2="96.0324" gradientUnits="userSpaceOnUse">
<stop stop-color="#172499"/>
<stop offset="1" stop-color="#1B2473"/>
</linearGradient>
<linearGradient id="paint9_linear" x1="183.338" y1="122.969" x2="183.338" y2="76.7446" gradientUnits="userSpaceOnUse">
<stop stop-color="#B3B3B3"/>
<stop offset="0.914" stop-color="#B1B1B1"/>
</linearGradient>
</defs>
</svg>
